<?xml version="1.0" standalone="no"?>
<!DOCTYPE svg PUBLIC "-//W3C//DTD SVG 20010904//EN"
 "http://www.w3.org/TR/2001/REC-SVG-20010904/DTD/svg10.dtd">
<svg version="1.0" xmlns="http://www.w3.org/2000/svg"
 width="512.000000pt" height="512.000000pt" viewBox="0 0 512.000000 512.000000"
 preserveAspectRatio="xMidYMid meet">
<metadata>
Created by potrace 1.16, written by Peter Selinger 2001-2019
</metadata>
<g transform="translate(0.000000,512.000000) scale(0.100000,-0.100000)"
fill="#000000" stroke="none">
<path d="M0 4907 l0 -213 193 -67 c105 -37 198 -67 205 -67 6 0 12 6 12 14 0
15 271 -74 357 -117 26 -14 95 -39 153 -57 58 -18 119 -38 135 -45 77 -31 96
-37 102 -31 3 3 1 6 -5 6 -9 0 -12 44 -12 156 0 145 1 156 18 149 9 -4 29 -12
45 -17 l27 -10 2 -131 c1 -73 2 -144 2 -159 1 -16 4 -28 8 -28 5 0 8 97 8 216
0 200 1 215 18 212 15 -3 18 -22 22 -188 l6 -185 4 190 4 190 6 -190 6 -190 2
178 c1 110 6 177 12 177 6 0 11 -32 12 -72 l2 -73 5 75 c3 41 9 71 12 65 4 -5
10 -128 14 -272 l7 -262 -39 10 c-126 34 -720 222 -1098 349 -132 44 -241 80
-242 80 -2 0 -3 -157 -3 -350 l0 -350 23 -5 c233 -55 383 -90 472 -110 61 -14
200 -45 310 -70 110 -25 265 -59 345 -76 181 -37 190 -40 190 -78 0 -29 0 -29
-66 -30 -97 -1 -248 -26 -406 -67 -77 -20 -141 -34 -143 -32 -6 6 216 66 325
88 52 11 120 20 150 21 61 1 77 -3 -310 80 -146 31 -630 140 -793 178 -48 12
-90 21 -92 21 -3 0 -5 -65 -5 -145 0 -138 1 -145 20 -145 19 0 20 -7 20 -205
0 -130 -4 -205 -10 -205 -6 0 -11 55 -12 143 l-2 142 -5 -150 c-4 -82 -6 -151
-6 -151 0 -2 519 -31 795 -45 124 -6 304 -16 400 -22 l175 -12 3 -48 c3 -45 2
-47 -20 -43 -38 8 -1129 56 -1285 56 l-73 0 0 -40 c0 -27 4 -40 14 -40 10 0
15 -43 23 -202 6 -137 6 -205 -1 -210 -15 -10 -16 -7 -25 83 l-8 84 -2 -99 -1
-99 690 5 690 5 0 -23 c0 -12 -4 -25 -9 -29 -5 -3 -146 -10 -313 -15 -167 -5
-395 -14 -508 -19 -113 -6 -283 -13 -377 -17 l-173 -6 0 -125 0 -124 45 7 c60
9 73 2 67 -34 -4 -28 -8 -30 -58 -37 -30 -3 -54 -11 -54 -17 0 -6 18 -7 48 -3
88 12 87 12 90 -17 4 -32 -12 -41 -90 -52 -27 -4 -48 -12 -48 -18 0 -5 10 -8
23 -5 12 3 43 9 70 12 l47 7 0 -30 c0 -32 -4 -35 -92 -47 -27 -4 -48 -11 -48
-16 0 -12 12 -11 103 6 43 8 81 15 83 15 3 0 4 -19 2 -42 l-3 -43 -89 -17
c-49 -10 -91 -20 -94 -23 -15 -14 14 -13 109 5 122 23 132 24 127 8 -3 -7 -27
-16 -54 -20 -108 -15 -188 -31 -178 -35 6 -2 83 8 170 22 155 25 867 122 1072
145 56 7 111 10 121 7 18 -4 19 10 26 301 4 168 4 527 -1 796 -4 270 -7 799
-6 1176 l3 685 -273 133 -273 133 -370 -1 c-339 -1 -368 -2 -347 -17 12 -9 22
-26 22 -39 0 -29 1 -28 -51 -8 -34 14 -40 21 -36 40 4 21 1 24 -29 24 l-34 0
0 -213z m230 -63 c0 -118 -2 -214 -4 -214 -3 0 -16 4 -30 10 l-26 10 0 214 0
215 30 -10 30 -11 0 -214z m-99 186 c14 -8 19 -21 19 -50 l0 -39 -42 18 c-40
16 -43 21 -46 59 -3 41 -3 42 23 32 15 -6 35 -15 46 -20z m212 -25 c36 -15 37
-17 37 -65 0 -28 -2 -50 -4 -50 -2 0 -20 7 -39 15 -20 8 -44 15 -54 15 -10 0
7 -11 37 -23 l55 -22 3 -148 3 -149 -23 8 c-13 4 -39 12 -58 19 l-35 12 -5
194 c-3 107 -3 200 -1 207 4 15 26 12 84 -13z m-233 -61 c34 -14 40 -21 40
-45 0 -34 2 -34 -50 -13 -34 14 -40 21 -40 45 0 34 -2 34 50 13z m40 -187 c0
-97 0 -98 -22 -91 -72 22 -68 14 -68 123 l0 100 45 -17 45 -16 0 -99z m440 75
c143 -54 155 -60 158 -85 2 -15 0 -27 -5 -27 -4 0 -79 26 -165 57 -152 56
-158 59 -158 86 0 15 4 27 8 27 4 0 77 -26 162 -58z m270 33 c23 -12 30 -22
30 -45 0 -33 -5 -35 -44 -20 -14 5 -26 6 -26 2 0 -4 16 -14 36 -21 l37 -13 -6
-112 c-4 -61 -7 -138 -7 -172 l0 -61 -35 11 -35 11 0 217 c0 146 3 218 10 218
6 0 24 -7 40 -15z m94 -15 c24 -9 26 -15 26 -64 l0 -55 -32 14 c-30 12 -33 17
-36 64 -3 54 0 57 42 41z m-221 -142 c34 -12 38 -43 5 -32 -37 11 -288 126
-293 134 -3 4 55 -15 128 -42 72 -28 144 -54 160 -60z m385 9 c2 -26 1 -47 -1
-47 -3 0 -21 7 -41 15 -32 14 -36 19 -36 53 0 49 5 54 44 38 28 -11 31 -17 34
-59z m-536 -9 c163 -56 173 -64 166 -134 l-3 -32 -100 34 c-55 18 -128 43
-162 55 l-63 21 0 54 c0 30 3 54 6 54 3 0 73 -23 156 -52z m621 30 c25 -9 27
-14 27 -65 0 -49 -2 -54 -17 -48 -10 4 -30 12 -45 17 -26 9 -28 14 -28 65 0
49 2 54 18 48 9 -4 29 -12 45 -17z m-248 -10 c22 -10 25 -17 25 -60 l0 -48
-32 13 c-30 12 -33 18 -36 60 -3 50 2 54 43 35z m133 -59 l31 -11 3 -156 c2
-86 3 -158 2 -159 0 -1 -16 3 -37 9 l-36 11 -3 159 c-2 87 0 158 3 158 3 0 20
-5 37 -11z m-140 -50 l31 -11 3 -109 3 -110 -25 6 c-46 12 -50 21 -50 131 0
57 2 104 4 104 1 0 17 -5 34 -11z m-886 -526 c3 -98 3 -181 1 -185 -2 -4 -10
-5 -18 -1 -22 8 -22 363 -1 363 11 0 15 -35 18 -177z m152 167 l26 -10 0 -193
0 -194 -30 5 -30 4 0 137 c0 75 -3 164 -5 199 -4 65 -2 68 39 52z m164 -18 c9
-12 12 -70 12 -214 0 -216 3 -208 -57 -192 -23 6 -23 7 -23 213 0 114 3 210 6
213 9 9 48 -3 62 -20z m60 -235 c2 -182 2 -187 -18 -187 -19 0 -20 6 -20 191
0 176 1 190 18 187 15 -3 17 -21 20 -191z m40 -10 c2 -162 0 -187 -13 -187
-13 0 -15 27 -15 191 0 148 3 190 13 187 9 -4 13 -53 15 -191z m60 174 c10 -6
13 -52 14 -189 1 -100 -1 -184 -4 -187 -3 -3 -17 -3 -32 1 l-26 6 0 189 c0
173 1 189 18 189 9 0 23 -4 30 -9z m222 -221 l0 -200 -24 0 c-22 0 -23 4 -30
92 -3 50 -6 140 -6 200 l0 108 30 0 30 0 0 -200z m38 -17 c0 -115 -3 -192 -6
-173 l-5 35 -7 -30 c-4 -16 -7 60 -7 170 1 167 2 182 7 90 l6 -110 2 113 c1
61 4 112 7 112 3 0 4 -93 3 -207z m42 -3 c0 -171 -2 -200 -15 -200 -13 0 -15
29 -15 200 0 171 2 200 15 200 13 0 15 -29 15 -200z m-230 1 c16 -84 30 -154
30 -157 0 -2 -8 -4 -18 -4 -16 0 -21 16 -35 113 -40 274 -27 300 23 48z m280
-36 c0 -149 -2 -175 -15 -175 -12 0 -15 19 -15 114 0 62 -3 141 -6 175 -7 58
-6 61 15 61 21 0 21 -3 21 -175z m40 -17 c0 -132 -3 -179 -11 -171 -7 7 -13
77 -16 182 -4 151 -3 171 11 171 14 0 16 -23 16 -182z m380 -48 c0 -115 -3
-210 -7 -210 -28 1 -32 23 -35 218 l-3 202 23 0 22 0 0 -210z m55 202 c6 -4 8
-64 5 -162 l-5 -155 -8 110 c-5 61 -8 127 -6 147 2 20 -3 43 -10 52 -11 13
-11 16 0 16 8 0 19 -4 24 -8z m-335 -182 c0 -93 -3 -170 -7 -170 -26 1 -29 20
-22 145 4 72 8 145 8 163 1 17 6 32 11 32 6 0 10 -63 10 -170z m43 48 c11
-201 10 -230 -10 -226 -16 3 -18 20 -21 163 -1 87 0 165 2 172 14 36 24 1 29
-109z m35 -69 c1 -109 -1 -170 -7 -164 -13 14 -19 346 -6 342 6 -2 11 -73 13
-178z m52 -13 c0 -159 -1 -164 -20 -159 -19 5 -20 14 -20 175 0 166 0 169 20
158 19 -10 20 -21 20 -174z m78 162 c-4 -30 -43 -37 -51 -9 -5 21 5 29 36 30
14 1 18 -5 15 -21z m2 -150 c0 -62 3 -130 6 -150 6 -33 4 -38 -13 -38 -19 0
-21 11 -33 141 -11 120 -11 142 1 150 35 22 39 11 39 -103z m-1160 -508 c0
-171 -2 -200 -15 -200 -13 0 -15 29 -15 200 0 171 2 200 15 200 13 0 15 -29
15 -200z m31 187 c-1 -4 -1 -53 -1 -109 0 -56 -2 -99 -4 -97 -2 2 -6 53 -10
112 -5 78 -4 108 4 105 6 -2 11 -7 11 -11z m47 -191 c-3 -175 -8 -219 -23
-205 -10 11 -17 210 -10 302 5 75 10 97 22 97 12 0 14 -29 11 -194z m42 -6 c0
-171 -2 -200 -15 -200 -13 0 -15 29 -15 200 0 171 2 200 15 200 13 0 15 -29
15 -200z m50 -5 c0 -188 -1 -195 -20 -195 -19 0 -20 7 -20 195 0 188 1 195 20
195 19 0 20 -7 20 -195z m48 -8 c2 -185 1 -198 -15 -195 -16 3 -18 21 -21 201
-2 185 -1 198 15 195 16 -3 18 -21 21 -201z m42 -4 c0 -151 -3 -194 -12 -191
-10 4 -13 54 -14 201 -2 163 1 195 12 190 11 -4 14 -43 14 -200z m50 2 c0
-188 -1 -195 -20 -195 -19 0 -20 7 -20 188 0 104 3 192 7 195 3 4 12 7 20 7
10 0 13 -39 13 -195z m50 -6 c0 -161 -2 -189 -15 -189 -13 0 -15 28 -15 195 0
169 2 194 15 189 13 -5 15 -36 15 -195z m40 -30 c0 -100 -4 -169 -10 -169 -9
0 -20 337 -11 346 16 15 21 -29 21 -177z m160 161 c132 -18 130 -17 130 -45 0
-29 6 -29 -130 -10 -58 8 -108 15 -111 15 -9 0 -19 42 -13 52 3 5 13 7 22 4
10 -3 55 -10 102 -16z m442 -61 c64 -7 122 -16 130 -20 31 -20 -12 -21 -152
-4 -115 14 -150 21 -150 32 0 11 8 13 28 9 15 -3 80 -11 144 -17z m-437 -14
c127 -13 125 -12 125 -60 l0 -43 -37 4 c-21 3 -72 8 -113 12 l-75 7 -3 48 c-3
45 -2 47 20 43 13 -3 50 -8 83 -11z m445 -70 c58 -8 108 -15 113 -15 4 0 7 -9
7 -20 0 -17 -7 -20 -37 -20 -55 1 -242 25 -249 33 -4 3 -4 13 -1 22 8 18 31
19 167 0z m-397 -41 c77 -6 77 -6 77 -36 l0 -29 -92 6 c-129 9 -138 11 -138
39 0 31 10 38 45 32 16 -3 65 -8 108 -12z m362 -15 c199 -25 205 -27 205 -42
-1 -37 -11 -38 -191 -21 -203 20 -219 24 -219 59 0 31 -1 31 205 4z m-302 -65
c57 -6 57 -6 57 -39 l0 -32 -72 4 c-40 2 -106 6 -145 9 l-73 6 0 35 0 35 88
-6 c48 -4 113 -9 145 -12z m325 -21 l192 -17 0 -29 0 -30 -132 8 c-73 4 -164
10 -203 14 l-70 6 -3 33 c-2 21 1 32 10 32 7 0 100 -7 206 -17z m-1000 -431
c1 -113 -1 -202 -6 -202 -16 0 -22 69 -22 243 0 131 3 168 13 165 9 -4 13 -56
15 -206z m45 6 c4 -111 4 -204 2 -206 -2 -3 -11 -2 -20 1 -13 6 -15 35 -15
207 0 161 3 200 13 200 11 0 15 -43 20 -202z m45 -6 c2 -167 0 -202 -11 -202
-12 0 -15 39 -19 198 -3 108 -3 201 -1 205 3 4 10 6 16 4 9 -3 13 -64 15 -205z
m194 66 c2 -79 1 -174 0 -211 l-4 -68 -31 3 -32 3 -3 197 -2 196 27 10 c16 6
31 11 35 11 4 1 8 -63 10 -141z m-152 115 c0 -10 3 -100 6 -200 6 -181 6 -183
-15 -183 -21 0 -21 4 -21 200 0 171 2 200 15 200 8 0 15 -8 15 -17z m48 -186
c2 -171 0 -197 -13 -197 -13 0 -15 28 -15 201 0 156 3 200 13 197 9 -4 13 -55
15 -201z m252 196 c0 -5 14 -84 30 -178 39 -222 39 -225 -4 -225 -32 0 -34 2
-40 43 -3 23 -10 107 -15 187 -5 80 -10 150 -11 155 -4 19 0 25 20 25 11 0 20
-3 20 -7z m159 -50 c7 -32 28 -121 47 -197 19 -77 34 -143 34 -148 0 -13 -50
-9 -55 5 -10 25 -75 352 -75 374 0 16 6 23 18 23 15 0 22 -13 31 -57z m91 -40
c12 -54 33 -142 46 -195 13 -53 24 -101 24 -107 0 -6 -13 -11 -28 -11 l-28 0
-45 198 c-26 108 -44 200 -42 205 2 4 15 7 28 7 21 0 25 -8 45 -97z m278 -110
l2 -203 -27 0 c-36 0 -46 22 -78 171 -14 63 -28 124 -30 137 -5 20 -1 22 30
22 l35 0 1 -107 c0 -60 4 -126 8 -148 4 -22 5 45 3 148 l-5 189 29 -4 29 -3 3
-202z m70 -1 l2 -202 -25 0 -25 0 0 198 c0 109 3 202 7 206 4 4 14 5 23 4 13
-3 15 -32 18 -206z m-325 181 c36 -132 90 -374 84 -379 -13 -14 -20 6 -63 183
-46 186 -50 213 -35 213 5 0 12 -8 14 -17z m377 -183 c0 -171 -2 -200 -15
-200 -13 0 -15 29 -15 200 0 171 2 200 15 200 13 0 15 -29 15 -200z m108 3 c3
-190 3 -193 -17 -193 -21 0 -21 4 -21 196 0 178 2 195 17 192 15 -3 17 -25 21
-195z m-840 -14 c2 -155 0 -177 -14 -183 -9 -3 -20 -4 -25 0 -5 3 -9 86 -9
185 l0 180 23 -3 c22 -3 22 -5 25 -179z m37 59 c8 -154 4 -240 -12 -246 -10
-3 -13 38 -13 182 0 104 4 186 9 186 5 0 12 -55 16 -122z m593 -615 c-3 -217
-5 -238 -20 -241 -17 -3 -18 13 -18 237 0 235 0 241 20 241 20 0 20 -5 18
-237z m-388 -38 l0 -255 -25 0 -25 0 0 248 c0 137 3 252 7 255 3 4 15 7 25 7
17 0 18 -14 18 -255z m78 10 c2 -216 -3 -273 -22 -254 -8 8 -20 465 -12 484 3
9 12 15 19 13 9 -4 13 -63 15 -243z m-48 -10 c0 -157 -4 -245 -10 -245 -6 0
-10 88 -10 245 0 157 4 245 10 245 6 0 10 -88 10 -245z m297 -201 c-2 -2 -25
-7 -50 -10 l-47 -7 0 216 0 216 48 3 47 3 3 -209 c1 -115 1 -210 -1 -212z
m151 214 c2 -168 0 -197 -13 -202 -13 -5 -15 20 -15 200 0 160 3 205 13 202 9
-4 13 -55 15 -200z m-40 -5 c-2 -146 -6 -197 -15 -201 -10 -3 -13 41 -13 197
0 173 2 201 15 201 13 0 15 -26 13 -197z m90 -1 c2 -187 2 -192 -18 -192 -19
0 -20 6 -20 196 0 181 1 195 18 192 15 -3 17 -22 20 -196z m62 -2 c0 -173 -1
-180 -20 -180 -19 0 -20 7 -20 180 0 173 1 180 20 180 19 0 20 -7 20 -180z
m48 3 c-2 -130 -6 -177 -15 -181 -10 -3 -13 37 -13 177 0 155 2 181 15 181 13
0 15 -24 13 -177z m-709 -15 l-1 -183 -21 60 c-14 43 -21 94 -25 183 l-4 122
26 0 26 0 -1 -182z m-174 102 c-3 -5 -15 -10 -26 -10 -19 0 -19 -6 -13 -162 7
-183 0 -218 -40 -218 -14 0 -36 4 -50 10 l-26 10 0 190 0 190 81 0 c51 0 78
-4 74 -10z m37 -70 c4 -41 -4 -50 -43 -50 -16 0 -19 7 -19 45 0 43 1 45 29 45
26 0 29 -3 33 -40z m39 -41 c9 -31 11 -94 3 -86 -4 3 -12 31 -19 62 -10 41
-10 55 -2 52 6 -2 14 -14 18 -28z m-17 -113 c23 -147 23 -146 -18 -146 -38 0
-39 4 -52 157 -7 80 -6 81 17 86 13 2 27 5 30 6 4 0 14 -46 23 -103z m110
-127 c-3 -5 -23 -9 -46 -9 l-40 0 4 58 c3 31 11 71 17 87 l13 30 29 -79 c16
-43 26 -83 23 -87z"/>
<path d="M1233 5055 c81 -36 150 -65 152 -65 3 0 5 29 5 65 l0 65 -50 0 c-51
0 -54 -2 -50 -47 1 -13 -1 -23 -5 -23 -12 0 -104 50 -110 60 -3 5 -25 10 -48
10 -39 -1 -30 -6 106 -65z"/>
<path d="M1399 5043 c0 -43 1 -391 2 -773 1 -382 3 -1152 4 -1710 3 -1421 9
-2585 12 -2456 4 107 4 108 23 91 12 -11 20 -31 20 -52 0 -29 2 -32 18 -23 9
5 70 32 135 59 117 49 119 49 160 35 23 -8 53 -23 67 -34 l25 -19 -85 -39
c-47 -22 -125 -57 -174 -78 -49 -21 -85 -39 -80 -41 5 -2 81 29 169 68 88 39
167 71 175 72 11 2 16 -10 18 -44 3 -44 1 -48 -32 -69 -20 -12 -36 -24 -36
-26 0 -2 17 -4 39 -4 l38 0 7 638 c3 350 9 1137 12 1748 7 1097 7 1111 26
1106 20 -5 20 -20 14 -1436 -3 -787 -9 -1572 -12 -1745 l-6 -314 59 5 c41 4
101 24 203 68 214 92 200 82 200 140 l0 49 44 -15 c44 -15 46 -15 128 21 46
21 110 41 143 45 62 8 340 125 380 161 11 9 146 66 300 127 222 86 287 108
316 105 27 -4 71 9 179 51 149 59 160 60 160 11 0 -16 -21 -29 -108 -64 -59
-24 -165 -71 -237 -104 -166 -77 -346 -145 -364 -139 -22 8 77 53 338 153 13
5 22 12 19 14 -7 8 -288 -108 -548 -225 -124 -56 -355 -158 -514 -226 -159
-69 -307 -134 -329 -145 -69 -36 -33 -30 49 7 148 67 703 304 714 304 5 0 10
-8 10 -19 0 -13 -20 -27 -70 -50 -39 -17 -72 -31 -75 -31 -6 0 -499 -230 -505
-236 -3 -3 40 -4 95 -3 72 2 104 7 115 18 13 13 15 13 18 -2 5 -26 22 -20 22
8 0 14 5 26 10 27 30 4 35 0 42 -27 6 -28 7 -27 5 7 -3 33 7 48 28 48 2 0 6
-19 8 -42 l4 -43 1 47 c2 36 7 50 22 58 19 10 20 8 20 -45 0 -30 4 -55 9 -55
6 0 9 26 8 57 -2 47 1 58 16 61 15 3 17 -5 17 -57 0 -34 4 -61 10 -61 6 0 10
30 10 70 0 58 3 71 19 80 11 5 22 10 25 10 3 0 6 -36 6 -80 l0 -80 65 0 64 0
3 112 c2 72 7 113 14 115 8 3 12 -30 13 -109 1 -62 4 -114 7 -117 2 -2 4 46 4
107 0 93 3 112 15 112 12 0 15 -19 15 -112 1 -97 3 -109 13 -85 8 20 37 42 95
74 78 42 83 44 80 23 -2 -17 -25 -35 -85 -69 -45 -25 -80 -47 -78 -49 2 -2 38
15 79 38 42 23 84 40 94 38 11 -2 -5 -15 -46 -37 -34 -19 -60 -36 -58 -38 2
-3 33 11 69 31 35 20 71 36 80 36 31 0 17 -19 -30 -44 -27 -14 -41 -25 -33
-25 13 -1 60 23 155 76 51 29 181 84 209 89 30 5 181 77 201 96 12 11 -31 -8
-112 -50 -34 -18 -65 -32 -68 -32 -35 0 122 84 224 120 56 19 65 20 78 7 13
-13 7 -19 -49 -49 -35 -20 -118 -68 -186 -107 -67 -39 -127 -71 -133 -71 -16
0 -152 -71 -146 -76 3 -3 29 8 59 25 30 17 60 31 66 31 19 0 1 -30 -27 -45
l-26 -14 32 2 c27 2 34 7 39 29 8 37 24 36 24 -2 0 -29 1 -30 47 -30 34 0 53
6 70 22 l23 22 45 -22 c25 -12 58 -22 73 -22 22 1 15 7 -40 36 -38 19 -68 39
-68 44 0 15 6 13 94 -35 51 -27 96 -45 116 -45 l33 0 -6 50 c-3 28 -3 58 0 66
10 28 23 -6 23 -63 l0 -53 45 0 45 0 0 49 c0 28 5 53 10 56 21 13 40 -17 40
-61 0 -24 5 -44 10 -44 6 0 10 15 10 33 0 19 3 36 6 40 11 11 84 -37 84 -55 0
-10 5 -18 10 -18 6 0 10 7 10 15 0 20 16 19 24 -1 5 -12 10 -13 19 -6 8 7 18
7 27 2 8 -6 33 -10 55 -10 40 0 -3 21 -352 167 -59 25 -63 28 -63 60 0 18 4
33 10 33 5 0 44 -15 87 -34 43 -19 179 -76 303 -127 l225 -93 107 -4 108 -3 0
151 c0 139 1 151 18 148 15 -3 17 -20 20 -151 3 -192 22 -198 22 -6 0 128 2
140 18 137 15 -3 18 -20 22 -143 l6 -140 2 133 c2 132 2 133 25 130 21 -3 22
-8 27 -133 5 -100 7 -115 10 -65 2 36 4 83 4 105 1 50 10 65 36 58 16 -4 20 0
20 18 0 23 -20 31 -342 138 -401 133 -708 245 -720 263 -11 18 -10 26 3 34 9
5 309 -90 948 -302 113 -37 148 -40 51 -4 -33 12 -60 26 -60 30 0 12 39 19 77
13 l35 -6 -15 30 c-20 39 -87 264 -82 273 3 4 13 10 24 13 16 4 21 -3 30 -37
6 -22 20 -72 30 -111 l20 -70 0 187 1 186 -127 30 c-71 17 -218 47 -328 67
-217 39 -385 75 -507 107 -70 18 -78 23 -78 44 0 13 4 24 9 24 4 0 111 -20
237 -45 126 -25 283 -54 349 -66 66 -11 189 -36 274 -55 85 -19 159 -34 164
-34 31 0 -18 16 -150 49 -131 33 -148 40 -151 59 -4 28 0 28 149 -8 68 -17
132 -32 142 -34 9 -2 17 -1 17 3 0 5 -64 22 -142 40 -154 35 -158 36 -158 54
1 38 14 40 149 17 120 -19 191 -22 134 -5 -23 7 -23 10 -23 161 0 147 1 154
20 154 18 0 20 7 20 55 0 49 -2 55 -22 59 -32 7 -343 43 -533 61 -88 9 -161
18 -163 19 -1 2 3 15 9 30 12 25 16 27 63 21 28 -3 107 -10 176 -16 137 -11
215 -21 364 -43 55 -9 102 -14 104 -11 8 7 -17 13 -118 25 -114 14 -141 20
-135 29 4 7 68 2 203 -15 50 -6 52 -5 52 17 0 18 -3 20 -9 10 -8 -12 -26 -12
-120 -1 -117 13 -129 21 -98 63 11 16 21 16 114 5 90 -10 103 -14 106 -32 2
-12 4 -1 4 24 1 25 -1 37 -4 26 -4 -15 -11 -17 -41 -13 -21 3 -65 9 -99 13
-45 5 -63 11 -66 23 -3 11 -5 10 -6 -5 0 -12 -8 -25 -17 -28 -23 -9 -24 -8
-24 14 0 11 5 20 10 20 6 0 10 7 10 15 0 18 -5 18 133 1 l108 -12 -3 150 -3
151 -55 2 c-184 8 -630 36 -770 48 -91 8 -168 15 -172 15 -5 0 -8 9 -8 20 0
19 5 20 63 15 109 -10 537 -35 687 -40 80 -3 171 -8 203 -10 34 -3 57 -1 57 5
0 6 -11 10 -25 10 l-25 0 0 180 0 180 25 0 c23 0 25 4 25 45 l0 45 -373 0
c-206 0 -429 3 -495 7 -110 5 -122 8 -122 25 0 17 20 18 495 18 l495 0 0 196
0 197 -122 -6 c-68 -3 -294 -11 -503 -18 -209 -7 -383 -15 -387 -18 -4 -4 -8
-42 -9 -85 l-2 -78 -116 3 -116 4 -3 -130 c-2 -123 -8 -144 -34 -145 -5 0 -8
70 -8 155 l0 155 70 0 70 0 0 176 c0 136 3 175 13 172 16 -6 19 -67 10 -220
-9 -141 -10 -139 55 -137 36 1 36 1 7 8 l-30 6 -3 81 -3 81 178 6 c338 10 933
41 933 49 0 4 -4 8 -10 8 -16 0 -13 277 2 283 10 4 9 8 -2 16 -12 9 -13 14 -2
31 6 11 12 50 12 86 l0 66 -57 -7 c-32 -3 -139 -17 -238 -31 -179 -24 -639
-80 -705 -86 -29 -2 -35 0 -38 18 -4 26 -14 24 308 64 244 29 694 90 718 96
16 4 18 364 1 364 -6 0 -133 -27 -282 -59 -150 -33 -369 -81 -487 -106 -118
-25 -225 -48 -237 -52 -21 -5 -23 -2 -23 34 l0 39 308 67 c514 112 717 158
727 168 5 5 0 9 -13 9 -22 0 -22 3 -22 129 0 121 1 130 20 136 19 6 20 15 20
151 0 79 -3 144 -7 144 -3 0 -76 -24 -162 -54 -86 -30 -317 -109 -513 -175
-357 -120 -358 -120 -364 -96 -13 53 -11 54 261 145 143 48 352 121 465 162
113 41 228 83 257 93 29 10 55 25 58 32 2 8 0 11 -5 8 -6 -4 -10 37 -10 114 0
69 4 122 10 126 6 3 10 13 10 20 0 12 -10 11 -52 -6 -169 -68 -969 -380 -990
-386 -26 -8 -26 55 0 64 9 3 24 12 32 18 8 7 175 77 370 155 528 212 533 214
521 218 -6 2 -26 -1 -43 -7 -24 -9 -34 -8 -40 1 -6 10 -8 9 -8 -3 0 -9 -7 -20
-16 -23 -23 -9 -24 -8 -24 14 0 11 -4 20 -10 20 -5 0 -10 -13 -10 -30 0 -20
-5 -30 -15 -30 -10 0 -15 10 -15 30 0 17 -4 30 -10 30 -5 0 -10 -17 -10 -39 0
-30 -4 -40 -20 -44 -18 -5 -20 0 -20 39 0 24 -4 44 -10 44 -5 0 -10 -22 -10
-49 0 -45 -10 -61 -36 -61 -2 0 -4 25 -4 55 0 30 -4 55 -10 55 -6 0 -10 -27
-10 -60 0 -49 -3 -61 -20 -70 -19 -10 -20 -7 -22 62 l-1 73 -6 -72 c-6 -76
-12 -86 -48 -98 -23 -6 -23 -5 -23 79 0 70 -3 86 -15 86 -12 0 -15 -17 -15
-95 0 -78 -3 -95 -15 -95 -12 0 -15 15 -15 79 0 99 -5 111 -41 111 l-29 0 0
-114 c0 -92 -3 -115 -15 -120 -13 -5 -15 12 -15 114 l0 120 -140 0 -140 0 -1
-32 -2 -33 -7 35 c-4 20 -8 -44 -9 -152 -1 -118 -5 -188 -11 -188 -6 0 -10 38
-10 93 0 52 -3 135 -6 185 l-7 92 -184 0 c-145 0 -190 -3 -213 -15 -27 -14
-30 -14 -30 0 0 8 -8 15 -17 14 -11 0 -13 -3 -5 -6 12 -5 17 -33 6 -33 -4 0
-22 10 -41 21 -51 32 -50 17 2 -20 38 -27 45 -37 45 -66 l0 -33 -102 69 -102
69 -245 -1 c-157 0 -238 -4 -223 -9 20 -9 22 -15 22 -98 0 -49 -3 -92 -6 -95
-4 -3 -15 -2 -25 4 -16 8 -19 23 -21 107 l-2 97 -3 -93 c-3 -80 -6 -93 -19
-88 -9 3 -18 6 -20 6 -2 0 -5 39 -6 88 l-2 87 -3 -78 c-3 -66 -6 -78 -19 -73
-9 3 -18 6 -20 6 -2 0 -5 33 -6 73 l-2 72 -3 -62 c-4 -63 -7 -68 -37 -57 -12
5 -16 20 -16 60 0 41 -4 54 -15 54 -11 0 -15 -11 -15 -40 0 -44 -6 -48 -36
-24 -10 8 -13 13 -6 9 8 -4 12 3 12 24 0 21 -5 31 -15 31 -8 0 -15 -9 -15 -20
0 -27 -18 -25 -30 3 -5 12 -9 16 -9 9 -1 -10 -6 -10 -22 -2 -11 6 -27 10 -35
8 -14 -3 88 -63 581 -346 110 -63 243 -143 295 -177 52 -34 127 -78 166 -98
80 -40 100 -59 87 -81 -9 -16 9 -25 -703 362 -96 52 -272 150 -391 218 l-217
124 -206 0 -206 0 0 -200 c0 -171 -2 -200 -15 -200 -13 0 -15 30 -17 203 l-3
202 -2 -197 c-3 -169 -6 -196 -18 -192 -13 5 -15 38 -15 195 0 107 -4 189 -9
189 -6 0 -12 -872 -15 -2157 -6 -2196 -12 -2783 -26 -2783 -28 0 -31 33 -25
267 14 588 5 1017 -23 1086 -7 16 -12 76 -12 134 0 90 -3 109 -20 130 -13 17
-20 41 -20 69 l0 44 -37 -5 c-21 -4 -67 -10 -103 -14 -54 -7 -58 -9 -25 -11
l40 -2 -55 -14 c-112 -30 -101 -19 -105 -115 -3 -92 -13 -122 -45 -139 -20
-11 -20 -7 -20 239 0 222 2 250 16 244 8 -3 18 -19 21 -35 6 -29 7 -30 52 -24
25 3 100 8 166 11 66 4 130 8 143 11 l22 4 0 1530 0 1530 -24 0 c-19 0 -22 -4
-19 -24 8 -37 -12 -39 -76 -6 -33 16 -66 30 -73 29 -7 0 25 -19 72 -43 82 -41
85 -44 83 -75 0 -18 -3 -34 -5 -36 -7 -7 -189 85 -235 118 -24 17 -45 28 -47
26 -2 -2 -22 -41 -45 -87 l-41 -82 27 -11 c59 -22 261 -113 316 -142 l57 -30
0 -250 c0 -145 -4 -247 -9 -242 -26 29 -36 97 -36 249 l0 159 -150 67 c-82 36
-165 74 -182 83 l-33 18 0 139 c0 87 -4 140 -10 140 -6 0 -10 -33 -11 -77z
m3085 -19 c7 -87 0 -114 -30 -114 -11 0 -14 21 -14 94 0 90 4 102 31 105 3 1
9 -38 13 -85z m-104 -39 c0 -63 -4 -115 -9 -115 -5 0 -16 -3 -25 -6 -14 -5
-16 6 -16 90 0 70 3 96 13 97 7 0 8 2 1 5 -6 3 -32 -5 -58 -16 -87 -37 -92
-20 -6 19 47 22 88 40 93 40 4 1 7 -51 7 -114z m-1278 88 c15 -13 18 -32 18
-112 0 -53 -3 -106 -6 -118 -5 -19 -9 -20 -30 -11 -23 11 -24 14 -24 135 0
129 4 140 42 106z m-922 -44 c0 -21 -4 -39 -9 -39 -11 0 -24 67 -16 80 12 20
25 -2 25 -41z m-52 10 c22 -8 22 -10 22 -204 l0 -195 -37 16 c-21 9 -44 18
-50 21 -10 4 -13 51 -13 187 0 101 3 186 7 189 6 7 24 3 71 -14z m-448 -37
c84 -42 95 -50 92 -71 -1 -14 -5 -27 -7 -30 -10 -9 -225 84 -225 97 0 21 20
52 33 51 7 0 55 -21 107 -47z m2350 37 c13 -9 13 -10 0 -7 -8 1 -55 -19 -105
-45 -49 -25 -87 -46 -84 -46 11 -1 164 71 169 80 3 4 12 3 20 -2 22 -15 -6
-32 -183 -115 -123 -58 -155 -69 -170 -60 -17 10 -17 12 1 26 39 30 119 76
222 127 121 59 111 56 130 42z m-787 -26 c4 -2 7 -65 7 -139 l0 -135 -60 32
-60 32 0 114 0 115 53 -7 c28 -4 55 -9 60 -12z m955 -105 l3 -106 -30 -10 -30
-11 -3 114 c-2 95 0 115 12 119 42 11 45 5 48 -106z m888 100 c4 -6 -1 -17
-11 -25 -17 -12 -17 -13 -2 -13 15 0 17 -12 17 -84 0 -90 -11 -116 -51 -116
-18 0 -19 8 -19 119 0 86 3 121 13 124 22 9 46 7 53 -5z m-2902 -34 c14 -5 16
-31 16 -180 0 -96 -2 -174 -4 -174 -31 0 -34 13 -35 186 -1 96 0 174 3 174 2
0 11 -3 20 -6z m169 -64 l27 -13 0 -179 c0 -98 -3 -178 -7 -178 -5 0 -40 14
-80 32 -47 21 -74 40 -77 53 -8 27 -8 309 0 329 6 15 17 12 137 -44z m-803 43
c0 -5 -4 -15 -10 -23 -11 -18 -25 -7 -17 15 6 15 27 21 27 8z m2073 -140 c5
-8 4 -13 -3 -13 -6 0 -18 17 -26 37 -14 31 -14 43 -2 82 l13 46 5 -70 c3 -38
9 -76 13 -82z m-1936 90 c112 -46 113 -47 113 -80 0 -18 -2 -33 -4 -33 -11 0
-236 112 -241 121 -8 12 1 39 12 39 4 0 58 -21 120 -47z m1621 -82 c2 -88 0
-112 -10 -109 -9 3 -14 37 -16 117 -2 88 0 112 10 109 9 -3 14 -37 16 -117z
m50 77 c8 -8 12 -49 12 -120 l0 -108 -25 12 c-24 11 -25 14 -25 120 0 110 7
127 38 96z m692 -31 c0 -33 -2 -35 -99 -76 -113 -48 -186 -72 -195 -64 -23 24
2 43 132 106 75 36 143 66 150 66 7 1 12 -12 12 -32z m-1626 17 c14 -5 16 -32
16 -191 0 -143 -3 -184 -12 -181 -7 3 -16 25 -20 49 -7 48 -11 329 -4 329 2 0
11 -3 20 -6z m116 -234 c0 -184 0 -183 -55 -158 l-25 11 0 179 0 178 40 -20
40 -20 0 -170z m2388 178 c7 -7 12 -31 12 -54 l0 -43 -57 -11 c-32 -7 -102
-22 -156 -35 -107 -24 -112 -23 -105 31 3 25 13 30 133 75 141 52 155 55 173
37z m-1430 -50 c21 -21 15 -86 -9 -98 -26 -15 -44 0 -53 41 -10 54 29 90 62
57z m93 -40 c53 -30 59 -36 59 -66 l0 -34 -56 32 c-31 17 -57 30 -59 28 -2 -2
23 -19 56 -38 82 -47 79 -73 -3 -27 l-63 34 0 51 c0 29 1 52 3 52 2 0 30 -15
63 -32z m449 -63 l0 -76 -46 -19 c-25 -11 -50 -20 -55 -20 -5 0 -9 33 -9 74
l0 74 48 20 c26 11 50 21 55 21 4 1 7 -33 7 -74z m-172 -29 l-4 -95 31 5 30 4
-27 -11 c-16 -6 -28 -15 -28 -20 0 -13 -28 -11 -32 3 -3 9 -12 9 -37 0 -18 -7
-37 -9 -42 -6 -5 3 -9 43 -9 89 l0 84 53 20 c28 11 56 20 61 20 4 1 7 -41 4
-93z m-1683 -41 c132 -59 256 -113 275 -120 19 -7 80 -32 135 -55 215 -89 605
-245 703 -280 l102 -38 0 30 c0 16 5 60 11 99 10 56 15 69 30 69 14 0 19 -8
20 -27 1 -30 3 -25 13 20 4 15 11 27 17 27 10 0 4 -200 -7 -242 -5 -18 -7 -17
-199 42 -285 87 -915 320 -1187 438 l-178 77 0 39 c0 27 4 37 13 33 6 -3 120
-53 252 -112z m2381 97 c-3 -5 -44 -24 -92 -43 -47 -18 -82 -35 -77 -36 6 -2
47 12 93 32 64 27 86 33 96 24 10 -8 11 -15 4 -24 -11 -13 -188 -81 -194 -74
-2 2 -6 16 -10 31 -7 31 -1 36 109 79 70 27 82 29 71 11z m-2886 -16 c0 -3
-177 -113 -250 -154 l-25 -14 25 20 c21 18 240 152 247 152 2 0 3 -2 3 -4z
m3108 -11 c-6 -6 -148 -55 -160 -55 -4 0 -8 6 -8 14 0 9 22 19 63 29 64 15
114 21 105 12z m-1199 -56 l71 -42 0 -44 0 -44 -58 33 c-91 51 -100 60 -108
101 -8 49 4 48 95 -4z m750 14 c0 -16 -4 -48 -7 -72 -6 -40 -11 -45 -44 -57
l-38 -13 0 60 c0 56 1 59 25 59 18 0 26 7 31 25 9 34 34 33 33 -2z m-862 -5
c-3 -8 -6 -5 -6 6 -1 11 2 17 5 13 3 -3 4 -12 1 -19z m1131 -5 c-4 -21 -197
-88 -212 -73 -6 6 -4 11 5 15 8 2 55 20 104 39 107 40 107 41 103 19z m-2533
-61 c185 -84 366 -154 720 -280 369 -130 888 -301 895 -294 3 3 0 7 -7 9 -15
5 -19 363 -4 363 5 0 12 -3 14 -7 3 -5 8 -160 12 -347 5 -244 4 -336 -4 -332
-7 5 -11 56 -11 144 l0 137 -33 2 c-18 1 -107 26 -197 57 -91 31 -243 76 -338
101 -152 40 -261 77 -612 207 -47 18 -194 78 -328 135 -134 57 -248 103 -253
103 -5 0 -9 16 -9 36 0 25 4 35 13 31 6 -3 71 -32 142 -65z m549 34 c-3 -8
-17 -16 -32 -19 l-26 -5 25 19 c29 22 40 24 33 5z m111 -32 c47 -25 85 -52 85
-60 0 -21 -13 -18 -93 22 -72 37 -87 48 -87 72 0 17 1 17 95 -34z m1503 -16
c-2 -50 -6 -63 -20 -66 -16 -3 -18 5 -18 56 0 61 4 72 27 72 11 0 13 -15 11
-62z m-50 -15 c-3 -63 -5 -68 -27 -71 -22 -3 -23 -1 -17 28 3 18 6 50 6 71 0
33 3 39 20 39 19 0 21 -5 18 -67z m-60 -24 c-3 -54 -6 -63 -25 -70 -22 -8 -23
-7 -23 55 0 63 5 73 38 75 10 1 12 -15 10 -60z m-1108 -100 l0 -138 -32 14
-33 13 -3 126 -3 125 36 -1 35 -1 0 -138z m-283 102 c81 -39 123 -70 123 -93
0 -10 -3 -18 -7 -18 -14 0 -175 86 -194 103 -48 45 -9 49 78 8z m1180 -188
c-2 -2 -12 -1 -21 3 -25 9 -24 189 2 203 16 9 17 1 20 -96 1 -58 1 -107 -1
-110z m148 177 c4 -22 2 -54 -4 -72 -5 -18 -12 -44 -15 -58 -2 -14 -3 -2 -1
25 2 28 6 63 10 79 7 25 6 28 -12 22 -14 -5 -23 -1 -27 10 -8 21 1 34 24 34
14 0 20 -10 25 -40z m-1015 -106 c0 -87 -4 -133 -10 -129 -6 4 -10 60 -10 136
0 79 4 129 10 129 6 0 10 -52 10 -136z m914 126 c26 -9 26 -10 26 -125 l0
-116 -30 16 -30 16 0 109 c0 61 2 110 4 110 3 0 16 -4 30 -10z m-885 -73 c-1
-34 -5 -91 -9 -127 -6 -56 -7 -46 -8 68 -1 87 1 131 8 127 6 -3 9 -34 9 -68z
m787 22 c-3 -17 -6 -54 -6 -80 l0 -49 -50 25 c-49 25 -50 26 -50 70 0 47 -4
44 65 58 45 10 48 8 41 -24z m-1193 -5 c165 -70 217 -97 217 -115 0 -11 -3
-19 -8 -19 -8 0 -324 129 -330 135 -2 2 -1 8 3 14 10 18 52 13 118 -15z m-552
-100 l5 -109 2 107 c2 91 4 106 17 102 13 -5 15 -37 15 -200 l0 -193 -32 14
-33 13 -3 192 c-2 152 0 191 10 188 9 -3 15 -38 19 -114z m-91 -75 l0 -171
-32 6 c-17 3 -34 9 -37 12 -9 8 -14 229 -7 268 6 32 31 51 69 55 4 1 7 -76 7
-170z m1120 46 c0 -98 -2 -114 -15 -109 -12 5 -15 27 -15 115 0 90 3 109 15
109 12 0 15 -19 15 -115z m-930 -92 c0 -170 -1 -184 -17 -181 -23 4 -27 65
-18 245 6 107 10 131 21 126 11 -4 14 -41 14 -190z m981 187 c17 -10 19 -22
19 -125 l0 -114 -30 10 -30 11 0 114 c0 117 3 124 41 104z m-1606 -84 c113
-39 161 -60 163 -71 5 -22 -17 -17 -201 44 -100 34 -143 53 -145 64 -2 10 3
17 10 17 8 0 86 -24 173 -54z m2303 -39 c92 -47 152 -83 152 -92 0 -17 -1 -16
-137 43 -129 57 -213 101 -213 110 0 14 13 23 30 20 8 -2 84 -38 168 -81z
m1012 53 c0 -11 -6 -20 -12 -21 -10 0 -10 -2 0 -6 13 -5 18 -248 5 -256 -5 -2
-20 -7 -35 -11 l-28 -6 0 160 0 160 35 0 c28 0 35 -4 35 -20z m-1578 -7 c16
-3 35 0 43 7 9 7 18 11 21 8 2 -3 -7 -13 -21 -22 -24 -16 -28 -15 -68 4 -23
11 -33 18 -22 14 11 -3 32 -8 47 -11z m123 5 c27 -12 29 -16 17 -35 -10 -16
-56 6 -60 30 -4 20 7 21 43 5z m205 -168 c0 -113 -4 -180 -10 -180 -6 0 -10
58 -11 153 -1 83 -2 164 -3 180 -1 16 3 27 11 27 10 0 13 -39 13 -180z m1327
174 c-3 -3 -12 -4 -19 -1 -8 3 -5 6 6 6 11 1 17 -2 13 -5z m-1377 -21 c0 -10
-7 -54 -15 -98 -8 -44 -14 -108 -15 -142 0 -35 -4 -63 -10 -63 -5 0 -11 10
-11 23 -1 16 -2 18 -6 5 -2 -10 -9 -18 -14 -18 -5 0 -6 12 -3 26 5 19 4 25 -5
20 -6 -4 -11 -14 -11 -22 0 -8 -5 -14 -10 -14 -10 0 -6 248 4 257 2 3 13 -1
25 -9 19 -12 20 -20 16 -113 l-4 -100 13 100 c7 55 16 115 20 133 8 34 26 44
26 15z m1398 -122 c-3 -122 -4 -126 -25 -129 -23 -3 -23 -2 -25 125 l-2 128
-3 -110 c-3 -121 -8 -155 -23 -155 -15 0 -13 248 2 263 6 7 26 11 45 9 l34 -4
-3 -127z m50 12 c-2 -90 -7 -128 -15 -131 -10 -3 -13 27 -13 127 0 111 2 131
15 131 13 0 15 -18 13 -127z m-3476 65 c120 -40 158 -56 155 -68 -5 -24 -46
-16 -193 37 -102 37 -134 52 -134 66 0 9 3 17 7 17 4 0 78 -24 165 -52z m1734
32 c18 0 18 -16 0 -23 -8 -3 -22 4 -33 15 -17 21 -17 21 0 15 10 -4 25 -7 33
-7z m38 -86 c-13 -48 -26 -89 -29 -92 -14 -15 -15 12 0 67 21 82 33 111 44
111 5 0 -2 -39 -15 -86z m-1615 -49 c51 -4 58 -10 67 -53 8 -42 0 -41 -140 3
-60 19 -105 30 -100 25 5 -4 60 -25 122 -46 100 -32 136 -53 120 -70 -7 -7
-278 89 -273 97 3 4 -3 13 -13 20 -15 13 -16 12 -4 -3 11 -14 10 -17 -10 -20
-13 -2 40 -24 135 -57 l157 -53 0 -80 0 -80 -27 7 c-16 3 -102 27 -193 54
l-165 48 -3 156 -3 157 143 -51 c79 -28 163 -52 187 -54z m3068 68 c-3 -2 -17
3 -32 13 l-27 18 6 -31 c6 -25 3 -34 -11 -41 -34 -19 -302 -85 -317 -79 -9 4
-16 17 -16 31 0 13 -4 26 -9 28 -5 2 -13 16 -17 32 -4 19 -3 27 3 23 6 -4 23
-11 39 -17 28 -11 29 -12 9 -26 -19 -15 -19 -15 5 -9 14 3 90 26 170 49 134
40 147 42 173 29 16 -8 27 -17 24 -20z m-481 -310 c-3 -7 -10 -13 -16 -13 -16
0 -14 317 3 323 9 3 13 -32 15 -147 1 -82 0 -156 -2 -163z m47 221 c11 -137 6
-218 -15 -222 -17 -3 -18 10 -18 158 0 125 3 161 13 158 7 -3 15 -37 20 -94z
m-1923 18 c104 -35 115 -41 118 -64 l3 -26 -154 47 c-85 26 -159 51 -165 55
-7 4 -12 18 -12 31 0 24 0 24 48 10 26 -8 99 -32 162 -53z m1830 -107 l0 -155
-25 0 -25 0 0 148 c0 82 3 152 7 155 3 4 15 7 25 7 17 0 18 -11 18 -155z
m-401 -17 c0 -84 -2 -148 -4 -143 -8 25 -12 295 -4 295 5 0 9 -67 8 -152z
m251 117 c0 -21 -17 -35 -41 -35 -5 0 -9 13 -9 29 0 20 6 31 18 34 25 5 32 -1
32 -28z m60 -120 l0 -155 -25 0 -25 0 0 149 c0 110 3 151 13 154 36 15 37 10
37 -148z m-340 10 c0 -86 -4 -135 -10 -135 -6 0 -26 7 -45 14 l-35 15 0 109 0
108 28 11 c63 25 62 26 62 -122z m916 110 c4 -8 10 -12 15 -9 5 3 9 -3 9 -13
0 -13 -9 -19 -30 -20 -17 -1 -88 -18 -159 -38 -141 -39 -188 -43 -198 -20 -3
9 -3 19 1 22 7 8 312 90 339 92 10 0 20 -6 23 -14z m-864 -151 l-9 -119 -1
140 c0 101 2 134 9 119 7 -13 7 -61 1 -140z m-1491 90 c142 -46 169 -58 169
-75 0 -24 4 -24 -115 11 -55 17 -130 40 -167 51 -60 17 -68 23 -68 44 0 14 3
25 6 25 3 0 82 -25 175 -56z m1541 -16 l1 -63 6 49 c6 47 7 49 24 32 9 -10 17
-29 16 -44 -1 -59 -25 -186 -34 -189 -6 -2 -19 3 -29 10 -17 13 -18 24 -11
140 7 133 24 172 27 65z m-332 -40 c0 -27 -5 -48 -10 -48 -17 0 -23 27 -15 77
9 58 25 39 25 -29z m506 50 c-3 -13 -6 -66 -6 -119 0 -88 -2 -97 -20 -102 -19
-5 -20 0 -20 119 l0 124 26 0 c22 0 25 -3 20 -22z m-2009 -48 c97 -33 183 -58
191 -55 7 2 11 1 8 -4 -7 -11 65 -38 266 -100 226 -69 574 -156 558 -138 -3 3
-55 17 -115 31 -173 39 -661 183 -652 192 4 4 136 -31 402 -109 66 -19 161
-45 210 -56 50 -12 149 -35 220 -51 72 -17 209 -50 305 -75 96 -24 187 -45
203 -45 17 0 27 -5 27 -15 0 -8 -8 -15 -18 -15 -10 0 -121 28 -247 61 -232 62
-318 81 -235 53 70 -23 452 -124 472 -124 10 0 18 -4 18 -10 0 -13 -26 -13
-69 0 -19 5 -75 16 -125 25 -50 9 -170 35 -266 59 -96 24 -207 49 -246 55 -39
6 -147 34 -240 62 -367 111 -809 239 -827 239 -11 0 -15 -4 -11 -11 4 -7 1
-10 -7 -7 -16 5 -26 98 -10 98 5 0 90 -27 188 -60z m1933 -75 c0 -111 -3 -135
-14 -135 -12 0 -15 25 -18 135 -3 123 -1 135 15 135 15 0 17 -13 17 -135z
m660 95 c0 -16 -8 -38 -18 -48 -18 -18 -267 -81 -278 -70 -3 4 2 20 10 36 18
34 54 51 192 87 49 13 90 24 92 24 1 1 2 -12 2 -29z m36 6 c8 -32 2 -58 -13
-64 -9 -2 -13 10 -13 42 0 49 16 62 26 22z m-2338 -31 c84 -24 156 -46 161
-49 9 -6 21 -56 14 -56 -10 0 -337 92 -345 96 -13 8 -9 54 5 54 7 0 82 -20
165 -45z m744 -7 c4 -7 8 -66 8 -130 0 -133 2 -131 -82 -107 -42 11 -52 40
-20 58 15 9 15 10 -5 11 -21 0 -22 4 -22 81 0 111 1 113 62 105 28 -3 54 -11
59 -18z m-232 -34 l95 -34 1 -47 2 -48 -8 45 c-5 30 -8 36 -8 18 -1 -15 -8
-33 -16 -40 -11 -10 -10 -14 8 -23 11 -6 22 -19 24 -30 3 -17 1 -17 -7 -5 -9
12 -11 12 -11 1 0 -16 -28 -12 -136 20 l-71 21 -7 74 c-7 81 -3 99 23 88 9 -4
59 -22 111 -40z m343 30 c29 -9 58 -24 65 -32 12 -16 18 -242 7 -254 -12 -11
-89 19 -96 38 -4 10 -8 61 -8 112 l-1 92 39 0 40 0 4 -52 4 -53 -1 55 -1 55
-42 3 c-34 3 -43 7 -46 25 -2 12 -5 -40 -6 -115 0 -85 -5 -138 -11 -138 -6 0
-10 53 -10 140 0 77 3 140 6 140 3 0 29 -7 57 -16z m-493 -63 c0 -15 -11 -20
-61 -25 -34 -4 -63 -5 -66 -3 -5 6 95 46 115 46 6 1 12 -7 12 -18z m-1170 -71
c96 -27 183 -50 193 -50 16 0 17 -25 17 -375 0 -330 -2 -375 -15 -375 -13 0
-15 16 -13 103 2 81 0 104 -12 114 -19 15 -28 196 -11 217 8 9 11 58 9 145
l-2 131 -36 10 c-19 5 -61 15 -93 24 -57 14 -83 26 -58 26 7 0 9 5 6 10 -3 6
-31 10 -61 10 -34 0 -53 4 -49 10 3 6 2 10 -4 10 -5 0 -17 3 -27 7 -12 4 -15
3 -10 -5 4 -7 1 -12 -8 -12 -10 0 -16 9 -16 25 0 14 3 25 8 25 4 0 86 -22 182
-50z m2363 -47 c62 -23 97 -41 97 -50 0 -17 -3 -16 -147 37 l-103 37 2 -71 c2
-70 2 -70 5 -13 2 31 7 57 12 57 7 0 132 -42 209 -70 31 -12 32 -14 32 -67 0
-52 -1 -55 -22 -49 -13 4 -88 24 -168 45 l-145 38 -3 97 -3 96 68 -26 c37 -14
112 -42 166 -61z m-406 -115 c-2 -35 -3 -9 -3 57 0 66 1 94 3 63 2 -32 2 -86
0 -120z m84 162 c17 -10 19 -22 19 -120 0 -67 -4 -110 -10 -110 -6 0 -10 35
-10 85 l0 84 -35 7 c-30 5 -35 10 -35 35 0 24 4 29 26 29 14 0 34 -5 45 -10z
m-2046 -62 c66 -16 125 -31 132 -33 18 -6 3 -46 -16 -41 -9 2 -78 17 -153 33
-137 28 -138 28 -138 56 0 31 -19 33 175 -15z m3359 -4 c11 -30 -5 -85 -28
-93 -40 -15 -96 -22 -96 -12 0 5 17 12 38 16 20 3 44 11 52 16 12 9 12 10 -3
5 -10 -3 -37 -9 -59 -13 -32 -5 -40 -3 -36 8 3 9 29 17 67 23 49 7 61 12 59
25 -3 13 -16 16 -63 14 l-60 -2 45 14 c61 18 77 18 84 -1z m-1340 0 c13 -5 16
-22 16 -78 0 -40 -2 -75 -5 -78 -3 -3 -17 -3 -30 0 -24 4 -25 7 -25 83 0 82 4
88 44 73z m1196 -119 c0 -98 -1 -105 -20 -105 -19 0 -20 7 -20 105 0 98 1 105
20 105 19 0 20 -7 20 -105z m-3075 21 c21 -7 21 -106 1 -106 -18 0 -197 36
-261 53 -48 13 -50 15 -57 58 -5 24 -6 49 -4 55 3 7 53 1 155 -21 83 -18 158
-35 166 -39z m3015 -31 c0 -87 -3 -105 -15 -105 -12 0 -15 18 -15 105 0 87 3
105 15 105 12 0 15 -18 15 -105z m-2485 85 c-3 -5 -13 -10 -21 -10 -8 0 -12 5
-9 10 3 6 13 10 21 10 8 0 12 -4 9 -10z m2445 -89 c0 -99 -4 -111 -41 -111
-10 0 -13 193 -2 203 3 4 15 7 25 7 16 0 18 -10 18 -99z m-60 -11 c0 -93 -1
-100 -20 -100 -19 0 -20 7 -20 100 0 93 1 100 20 100 19 0 20 -7 20 -100z
m-2197 56 c71 -19 133 -38 138 -43 5 -5 7 -17 4 -25 -5 -13 -26 -10 -152 21
-83 21 -149 43 -151 50 -3 8 -8 4 -16 -10 -8 -17 -25 -26 -66 -34 -30 -6 -67
-15 -82 -18 -25 -7 -28 -5 -28 17 0 21 6 25 68 36 37 7 81 19 97 26 42 18 45
18 188 -20z m2147 -66 c0 -82 -3 -100 -15 -100 -12 0 -15 18 -15 100 0 82 3
100 15 100 12 0 15 -18 15 -100z m-132 63 c-3 -19 -54 -31 -135 -32 -31 -1
-43 3 -43 14 0 13 9 16 90 28 66 11 92 7 88 -10z m-425 -92 c15 -6 27 -15 27
-21 0 -13 -1 -13 -74 5 -160 41 -276 78 -276 91 0 9 40 2 148 -26 81 -21 159
-43 175 -49z m932 29 c0 -43 -1 -44 -35 -51 -19 -4 -53 -9 -75 -11 l-40 -3 0
45 0 45 55 11 c88 19 95 16 95 -36z m-2521 -6 c72 -20 135 -40 140 -44 5 -5 6
-19 2 -33 l-6 -24 -150 36 -150 35 0 33 c0 42 1 42 164 -3z m2026 21 c0 -18
-29 -26 -110 -28 -53 -2 -65 1 -68 15 -3 14 6 18 45 21 113 9 133 7 133 -8z
m-2872 -55 c151 -33 152 -34 152 -61 0 -15 -4 -30 -10 -34 -5 -3 -84 8 -175
26 l-165 31 0 40 c0 37 2 40 23 36 12 -3 91 -20 175 -38z m1158 23 c47 -14 73
-37 60 -50 -3 -3 -34 5 -69 16 -40 14 -75 19 -91 15 -32 -8 -34 9 -3 24 31 15
43 14 103 -5z m-806 -84 c0 -81 -2 -90 -17 -87 -15 3 -18 17 -21 91 -3 82 -2
87 18 87 19 0 20 -6 20 -91z m164 71 c42 -10 83 -17 91 -14 14 6 166 -26 440
-91 203 -49 596 -127 853 -171 195 -33 222 -40 222 -56 0 -10 -5 -18 -10 -18
-63 0 -744 129 -1292 244 -119 25 -210 40 -215 35 -5 -5 -58 1 -124 14 -103
22 -114 26 -117 47 -3 21 -1 22 30 17 18 -4 70 -17 116 -31 45 -13 82 -20 82
-15 0 4 -19 13 -42 19 -51 13 -125 38 -117 39 3 1 40 -8 83 -19z m2070 5 c-3
-8 -14 -17 -25 -20 -15 -5 -19 -16 -19 -55 0 -34 -4 -50 -16 -54 -39 -15 -44
-8 -44 58 l0 64 48 10 c26 5 50 10 54 11 4 0 5 -6 2 -14z m286 -10 c0 -16 -44
-27 -122 -29 -42 -1 -53 2 -56 16 -3 17 -3 17 146 26 22 1 32 -2 32 -13z
m-1728 -34 c90 -31 99 -38 87 -64 l-11 -23 -78 17 c-43 9 -83 20 -89 23 -22
14 0 24 32 15 57 -16 64 -8 8 10 -30 9 -56 22 -59 29 -6 18 46 15 110 -7z
m662 -1 c26 -9 26 -11 26 -111 l0 -101 -27 7 c-16 4 -29 7 -30 8 -2 2 -5 170
-4 195 1 15 3 15 35 2z m450 -13 c0 -9 -1 -62 -2 -117 -1 -59 -6 -100 -12
-100 -6 0 -10 47 -10 121 0 92 3 120 13 117 6 -3 12 -12 11 -21z m664 -8 c2
-13 -14 -18 -90 -28 -51 -7 -123 -15 -160 -18 -68 -6 -68 -6 -68 19 0 23 16
38 41 38 5 0 9 -12 9 -26 0 -26 0 -26 18 -6 31 38 243 55 250 21z m-1329 -25
c91 -25 125 -43 108 -60 -7 -7 -198 45 -214 57 -7 7 -14 6 -18 -1 -7 -12 -75
-14 -75 -2 0 12 63 42 80 38 8 -2 62 -16 119 -32z m504 -4 c11 -9 -3 -120 -16
-120 -6 0 -7 21 -3 53 l7 53 -61 17 c-33 10 -60 21 -60 26 0 9 119 -17 133
-29z m-233 -65 c0 -57 -4 -95 -10 -95 -6 0 -10 38 -10 95 0 57 4 95 10 95 6 0
10 -38 10 -95z m471 85 c16 -9 19 -22 19 -73 0 -34 -3 -79 -6 -99 -6 -35 -9
-38 -40 -38 l-34 0 0 103 c0 57 3 107 7 110 9 10 31 9 54 -3z m-431 -95 c0
-80 -2 -93 -15 -89 -12 5 -15 25 -15 95 0 72 3 89 15 89 12 0 15 -17 15 -95z
m484 48 c-2 -21 -6 -69 -10 -107 -9 -102 -22 -66 -16 47 3 70 8 97 17 97 9 0
12 -12 9 -37z m64 -82 l-2 -96 -6 85 -6 85 -4 -85 -4 -85 -6 85 -6 85 -2 -82
c-2 -64 -5 -83 -16 -83 -11 0 -13 16 -9 83 6 103 5 102 37 103 l26 2 -2 -97z
m-922 75 c27 -8 75 -21 107 -30 36 -11 57 -22 57 -31 0 -8 -5 -15 -11 -15 -16
0 -204 49 -236 61 -26 10 -27 12 -8 19 28 12 35 12 91 -4z m-199 -22 c-3 -3
-12 -4 -19 -1 -8 3 -5 6 6 6 11 1 17 -2 13 -5z m46 -11 c-7 -2 -19 -2 -25 0
-7 3 -2 5 12 5 14 0 19 -2 13 -5z m-973 -207 c0 -189 -5 -236 -26 -236 -11 0
-14 38 -14 205 0 198 1 205 20 205 19 0 20 -7 20 -174z m1710 122 c0 -16 -6
-18 -42 -13 l-43 5 43 -11 c23 -6 42 -14 42 -20 0 -12 -9 -11 -86 3 -63 11
-91 36 -36 33 15 -1 18 0 7 2 -25 6 -39 19 -32 30 4 6 35 5 76 0 59 -8 71 -13
71 -29z m-1622 -25 c3 -45 6 -53 23 -53 18 0 19 -8 19 -146 l0 -145 -32 3 -32
3 3 60 c1 43 -2 66 -14 80 -16 20 -16 20 -6 -1 6 -12 8 -44 4 -73 -5 -41 -9
-51 -24 -51 -17 0 -19 8 -19 63 0 37 5 69 13 76 10 11 10 13 0 7 -10 -6 -13
20 -13 114 l0 121 38 -3 37 -3 3 -52z m2742 -117 c0 -145 -2 -175 -15 -180
-12 -4 -15 7 -15 68 0 40 -3 121 -7 179 -6 105 -6 107 15 107 22 0 22 -3 22
-174z m-90 -11 l0 -175 -35 0 -35 0 0 168 c0 93 3 172 7 175 3 4 19 7 35 7
l28 0 0 -175z m40 -1 c0 -136 -3 -175 -12 -171 -20 6 -21 347 -2 347 11 0 14
-34 14 -176z m100 6 c0 -163 -1 -170 -20 -170 -19 0 -20 7 -20 170 0 163 1
170 20 170 19 0 20 -7 20 -170z m-3302 124 l152 -18 0 -29 c0 -27 -2 -29 -32
-24 -18 3 -93 14 -165 23 l-133 17 0 30 c0 19 4 28 13 24 7 -2 81 -13 165 -23z
m679 -111 c-4 -71 -7 -154 -7 -185 0 -58 0 -58 -30 -58 l-30 0 0 185 0 185 37
0 36 0 -6 -127z m2333 -48 c0 -151 -11 -202 -24 -109 -8 62 -8 249 1 257 19
20 23 -6 23 -148z m-700 130 c46 -8 106 -16 133 -17 50 -1 71 -18 49 -40 -14
-14 -293 19 -304 35 -10 16 2 37 21 37 9 0 54 -7 101 -15z m758 -132 c-3 -131
-5 -148 -20 -151 -17 -3 -18 9 -18 147 0 145 1 151 20 151 20 0 20 -5 18 -147z
m-1518 -78 c0 -198 -1 -205 -20 -205 -19 0 -20 7 -20 205 0 198 1 205 20 205
19 0 20 -7 20 -205z m214 174 c3 -17 6 -114 6 -215 l0 -184 -30 0 -30 0 0 154
c0 84 -3 181 -6 215 l-7 61 30 0 c26 0 31 -5 37 -31z m906 -120 c0 -177 -19
-191 -22 -16 l-2 122 -3 -122 c-5 -175 -23 -158 -23 21 l0 143 25 -5 25 -4 0
-139z m690 21 c0 -109 -2 -130 -15 -130 -13 0 -15 21 -15 130 0 109 2 130 15
130 13 0 15 -21 15 -130z m-3312 88 c120 -12 132 -17 113 -47 -8 -12 -31 -13
-158 -2 -181 15 -183 16 -183 48 0 25 1 26 53 20 28 -4 107 -12 175 -19z m550
-126 c2 -137 2 -142 -18 -142 -19 0 -20 6 -20 146 0 133 1 145 18 142 15 -3
17 -19 20 -146z m1984 8 c2 -72 0 -130 -4 -130 -4 0 -9 57 -11 128 l-3 127 -2
-133 c-2 -121 -4 -133 -19 -130 -16 3 -18 19 -21 136 l-3 132 30 0 30 0 3
-130z m-1858 78 c4 -21 2 -34 -5 -37 -8 -2 -8 -6 1 -11 9 -6 37 -141 40 -192
0 -5 -13 -8 -29 -8 -27 0 -29 3 -35 53 -11 96 -6 227 8 227 8 0 16 -15 20 -32z
m2111 -80 c0 -64 -4 -116 -10 -120 -5 -4 -40 -8 -77 -8 l-68 0 0 114 0 115 48
4 c26 2 61 4 77 5 l30 2 0 -112z m-2007 96 c15 -4 22 -14 22 -30 0 -33 -33
-32 -48 1 -18 39 -17 40 26 29z m770 -182 c-2 -111 -7 -167 -14 -169 -20 -7
-24 38 -17 194 5 122 9 150 20 146 11 -4 13 -38 11 -171z m912 68 c0 -67 -4
-110 -10 -110 -6 0 -10 43 -10 110 0 67 4 110 10 110 6 0 10 -43 10 -110z
m-1501 81 c93 -16 108 -24 93 -47 -5 -9 -37 -7 -120 6 -62 9 -115 20 -118 23
-13 13 6 37 28 36 13 0 65 -8 117 -18z m-989 -9 c137 -16 145 -18 148 -39 4
-27 9 -27 -148 -13 -197 17 -200 18 -200 46 0 29 -3 29 200 6z m1424 -8 c26
-10 19 -34 -11 -34 -55 0 -143 24 -143 38 0 12 13 14 69 8 38 -3 76 -9 85 -12z
m370 -151 c-4 -93 -8 -170 -10 -172 -10 -11 -13 17 -17 172 -4 158 -3 167 15
167 18 0 18 -8 12 -167z m36 -8 c0 -103 -4 -165 -10 -165 -6 0 -10 62 -10 165
0 103 4 165 10 165 6 0 10 -62 10 -165z m-350 10 c0 -122 -2 -145 -15 -145
-13 0 -15 23 -15 145 0 122 2 145 15 145 13 0 15 -23 15 -145z m434 139 c9 -3
16 -12 16 -20 0 -10 -13 -14 -45 -14 -38 0 -45 3 -45 20 0 15 7 20 29 20 16 0
36 -3 45 -6z m-946 -29 c107 -17 112 -19 112 -42 0 -21 -3 -23 -32 -18 -46 7
-270 35 -285 35 -7 0 -13 11 -13 26 0 26 1 27 53 21 28 -3 103 -13 165 -22z
m992 -135 c0 -100 -4 -160 -10 -160 -6 0 -10 60 -10 160 0 100 4 160 10 160 6
0 10 -60 10 -160z m30 -5 c0 -103 -4 -165 -10 -165 -6 0 -10 62 -10 165 0 103
4 165 10 165 6 0 10 -62 10 -165z m60 -6 c0 -152 -1 -159 -20 -159 -19 0 -20
7 -20 164 0 159 1 164 20 159 19 -5 20 -14 20 -164z m211 131 l6 -35 2 37 c1
34 3 36 34 35 l32 -2 0 -165 0 -165 -24 -3 -24 -4 5 154 c2 84 2 133 0 108 -3
-28 -7 -39 -11 -28 -3 10 -4 -39 -2 -107 l3 -125 -25 0 c-22 0 -25 5 -31 53
-3 28 -6 105 -6 170 0 107 2 118 18 115 11 -2 19 -16 23 -38z m-937 20 c21 -8
26 -16 26 -45 0 -26 -4 -34 -12 -29 -10 6 -10 4 0 -7 7 -8 12 -41 12 -86 l0
-73 -52 0 c-65 0 -98 9 -98 25 0 6 -11 25 -25 41 -20 22 -25 38 -23 69 l3 40
82 0 c74 0 80 2 67 16 -13 14 -20 59 -10 59 3 0 16 -4 30 -10z m766 -150 c0
-136 -2 -160 -15 -160 -13 0 -15 24 -15 160 0 136 2 160 15 160 13 0 15 -24
15 -160z m334 154 c12 -5 16 -21 16 -75 0 -61 -2 -69 -19 -69 -17 0 -20 9 -23
75 -3 76 -2 80 26 69z m-776 -142 c2 -127 2 -132 -18 -132 -19 0 -20 6 -20
136 0 124 2 135 18 132 15 -3 17 -19 20 -136z m29 -74 c-1 -40 -3 -8 -3 72 0
80 2 112 3 73 2 -40 2 -106 0 -145z m-1704 191 c165 -14 167 -14 167 -44 0
-30 10 -29 -182 -13 l-148 12 0 28 c0 33 -7 32 163 17z m1455 -111 l3 -118
-36 0 -35 0 0 121 0 120 33 -3 32 -3 3 -117z m720 -31 c2 -139 2 -147 -17
-147 -10 0 -21 6 -24 13 -3 9 -2 270 2 285 1 2 9 2 19 0 15 -3 17 -20 20 -151z
m-220 126 c2 -9 -10 -13 -42 -13 -35 0 -46 4 -46 16 0 12 9 14 42 12 23 -2 43
-9 46 -15z m-963 -28 c55 -8 104 -15 108 -15 5 0 6 -4 3 -8 -6 -10 -202 15
-225 28 -22 13 -7 12 114 -5z m965 -5 c0 -5 -20 -10 -45 -10 -25 0 -45 5 -45
10 0 6 20 10 45 10 25 0 45 -4 45 -10z m-1887 -31 l147 -13 1 -25 c2 -24 2
-24 6 -3 2 12 9 20 14 17 14 -9 12 -481 -2 -508 -9 -16 -9 -22 0 -25 13 -4 16
-252 2 -252 -16 0 -21 31 -21 141 l0 109 -190 0 -190 0 0 26 0 26 108 -2 c59
-1 144 -1 190 -1 l82 1 0 218 0 217 -27 0 c-16 0 -101 4 -190 9 l-163 9 0 40
0 40 43 -6 c23 -3 108 -11 190 -18z m914 5 c89 -12 123 -21 128 -32 3 -8 3
-17 0 -20 -6 -6 -255 25 -280 34 -23 9 -18 34 8 34 12 0 77 -7 144 -16z m965
-41 c4 -100 3 -145 -3 -155 -3 -5 -19 -8 -35 -6 l-29 3 -3 103 -3 102 36 0
c35 0 35 0 37 -47z m-967 -11 c120 -17 120 -17 123 -46 3 -27 3 -28 -35 -22
-21 3 -85 11 -143 17 -57 6 -108 13 -112 15 -4 3 -8 16 -8 30 0 29 5 29 175 6z
m-289 -42 c249 -26 547 -56 1204 -120 113 -11 222 -20 243 -20 31 0 37 -3 37
-22 0 -21 -2 -21 -102 -14 -57 3 -215 17 -353 31 -469 46 -1170 114 -1248 121
-79 7 -93 14 -83 39 7 19 -26 20 302 -15z m1721 -102 c-2 -18 -4 -4 -4 32 0
36 2 50 4 33 2 -18 2 -48 0 -65z m703 -93 c0 -158 -1 -165 -20 -165 -19 0 -20
7 -20 165 0 158 1 165 20 165 19 0 20 -7 20 -165z m43 8 c6 -151 2 -183 -22
-169 -12 8 -16 308 -4 319 17 17 20 -3 26 -150z m47 8 c0 -82 -3 -156 -6 -165
-17 -44 -24 -1 -24 149 0 140 2 165 15 165 13 0 15 -23 15 -149z m70 -22 l0
-160 -22 3 c-23 3 -23 6 -26 161 l-3 157 26 0 25 0 0 -161z m141 148 c1 -4 -2
-75 -6 -157 l-8 -150 -28 0 -29 0 0 155 c0 97 4 155 10 155 6 0 10 -15 11 -32
l1 -33 10 38 c7 25 15 37 25 35 8 -2 14 -6 14 -11z m-83 -154 c2 -144 1 -153
-16 -153 -24 0 -32 49 -32 202 0 108 0 109 23 106 22 -3 22 -6 25 -155z
m-3253 119 c6 -4 11 -73 12 -164 l1 -158 -30 0 c-27 0 -30 3 -24 23 3 12 6 86
6 165 0 142 4 157 35 134z m3423 -134 l3 -138 -36 0 -35 0 0 141 0 140 33 -3
32 -3 3 -137z m-3300 -25 c-3 -141 -5 -158 -20 -161 -14 -3 -18 4 -20 30 l-1
33 -4 -32 c-4 -27 -9 -33 -29 -33 l-24 0 0 160 0 160 50 0 51 0 -3 -157z m270
-105 c-3 -208 -5 -243 -18 -243 -13 0 -15 35 -18 243 -2 238 -2 242 18 242 20
0 20 -4 18 -242z m62 2 c0 -233 -1 -240 -20 -240 -19 0 -20 7 -20 233 0 129 3
237 7 240 3 4 12 7 20 7 10 0 13 -47 13 -240z m48 30 c3 -223 -1 -270 -23
-270 -13 0 -15 37 -15 241 0 224 1 240 18 237 15 -3 17 -22 20 -208z m-555
178 c-2 -5 -3 -57 -3 -118 l0 -110 -95 0 -95 0 0 115 0 114 58 4 c82 5 137 3
135 -5z m787 -239 c0 -133 -4 -209 -10 -209 -6 0 -10 79 -10 216 0 141 3 213
10 209 6 -4 10 -87 10 -216z m-30 -5 c0 -168 -3 -215 -12 -212 -10 4 -14 58
-16 216 -2 184 0 212 13 212 13 0 15 -29 15 -216z m1683 179 c44 -5 47 -7 47
-36 l0 -30 -52 7 c-29 3 -81 6 -115 6 l-63 0 0 36 0 37 68 -7 c37 -4 88 -9
115 -13z m-312 -3 c17 -10 19 -22 19 -111 l0 -100 -47 3 -48 3 -3 95 c-2 80 0
97 15 107 21 16 38 16 64 3z m-1280 -76 c1 -24 3 -25 6 -6 2 12 9 22 14 22 11
0 17 -14 75 -179 33 -95 41 -128 32 -138 -27 -33 -42 -8 -79 132 -45 169 -51
164 -9 -7 34 -137 34 -138 21 -138 -6 0 -22 54 -37 120 -15 66 -30 118 -32
116 -2 -3 1 -53 8 -112 9 -85 9 -109 -1 -115 -23 -14 -29 1 -31 79 l-2 77 -6
-85 c-5 -65 -7 -37 -8 112 l-2 197 25 -23 c14 -13 26 -36 26 -52z m-171 -103
c0 -178 -7 -211 -44 -211 -62 0 -64 8 -45 209 15 166 13 161 54 161 l35 0 0
-159z m448 -34 c2 -172 2 -177 -18 -177 -19 0 -20 6 -20 181 0 166 1 180 18
177 15 -3 17 -21 20 -181z m911 96 c-1 -100 -6 -93 -11 15 -2 39 0 72 4 72 4
0 7 -39 7 -87z m781 72 c0 -12 -17 -15 -95 -15 -78 0 -95 3 -95 15 0 12 17 15
95 15 78 0 95 -3 95 -15z m-1650 -175 c0 -144 -2 -170 -15 -170 -13 0 -15 26
-15 170 0 144 2 170 15 170 13 0 15 -26 15 -170z m1242 154 l76 -7 -2 -46 c0
-25 -4 -45 -8 -43 -5 1 -55 2 -113 2 l-105 0 0 30 0 30 103 2 102 2 -99 5
c-67 4 -101 10 -104 19 -4 14 34 15 150 6z m-1078 -81 c8 -96 8 -207 0 -227
-3 -9 -17 -16 -30 -16 l-24 0 0 154 c0 155 2 163 36 165 7 1 14 -29 18 -76z
m544 -75 c2 -120 0 -148 -11 -148 -17 0 -29 133 -20 228 4 43 2 62 -6 62 -8 0
-11 -44 -11 -150 0 -86 -4 -150 -9 -150 -18 0 -23 42 -19 176 l3 135 35 -3 35
-3 3 -147z m-648 126 c0 -14 -3 -14 -15 -4 -13 11 -15 -5 -15 -139 0 -94 -4
-151 -10 -151 -6 0 -10 58 -10 155 l0 155 25 0 c16 0 25 -6 25 -16z m1590 1
c0 -12 -17 -15 -95 -15 -87 0 -107 5 -88 23 3 4 46 7 95 7 72 0 88 -3 88 -15z
m-1030 -140 c0 -114 -2 -135 -15 -135 -23 0 -31 34 -39 158 l-7 112 30 0 31 0
0 -135z m1090 105 c0 -19 -7 -20 -120 -20 -99 0 -120 3 -120 15 0 11 21 15
108 18 59 1 113 4 120 5 6 1 12 -7 12 -18z m-1650 -125 c0 -83 -4 -135 -10
-135 -6 0 -10 52 -10 135 0 83 4 135 10 135 6 0 10 -52 10 -135z m-150 -5 l0
-130 -30 0 c-16 0 -30 2 -30 4 0 3 -16 60 -35 127 -19 68 -35 124 -35 126 0 2
29 3 65 3 l65 0 0 -130z m1373 84 c71 -12 36 -24 -75 -25 l-113 -2 95 -8 c143
-13 147 -16 18 -18 l-118 -1 0 30 0 30 78 0 c42 0 94 -3 115 -6z m-725 -46
c-3 -23 -6 -23 -160 -26 l-158 -3 0 26 0 25 161 0 160 0 -3 -22z m779 -43
c-14 -13 -51 -16 -249 -18 -222 -2 -233 -1 -236 17 -4 18 1 19 95 13 64 -4
104 -2 110 4 7 7 61 9 142 7 78 -2 131 1 131 7 0 5 5 4 11 -2 9 -9 8 -16 -4
-28z m783 -190 c0 -107 -4 -195 -9 -195 -11 0 -21 126 -21 272 0 98 3 118 15
118 13 0 15 -28 15 -195z m30 0 c0 -123 -4 -195 -10 -195 -6 0 -10 72 -10 195
0 123 4 195 10 195 6 0 10 -72 10 -195z m30 -6 c0 -119 -4 -189 -10 -189 -6 0
-10 72 -10 196 0 127 3 193 10 189 6 -4 10 -80 10 -196z m-1630 161 l0 -30
-150 0 -150 0 0 30 0 30 150 0 150 0 0 -30z m1670 -149 c0 -93 -3 -176 -6
-185 -17 -45 -24 2 -24 169 0 158 2 185 15 185 13 0 15 -25 15 -169z m60 -28
c0 -143 -3 -184 -12 -181 -10 4 -14 53 -16 191 -2 164 -1 186 13 181 13 -5 15
-35 15 -191z m-570 17 c0 -144 -2 -170 -15 -170 -13 0 -15 26 -15 170 0 144 2
170 15 170 13 0 15 -26 15 -170z m50 0 c0 -144 -2 -170 -15 -170 -13 0 -15 26
-15 170 0 144 2 170 15 170 13 0 15 -26 15 -170z m477 -102 c-1 -51 -3 -10 -3
92 0 102 2 143 3 93 2 -51 2 -135 0 -185z m-752 252 c4 -6 -7 -10 -24 -10 -17
0 -31 5 -31 10 0 6 11 10 24 10 14 0 28 -4 31 -10z m175 -20 c0 -30 0 -30 -58
-30 -32 0 -63 -5 -70 -12 -9 -9 -12 -3 -12 30 l0 42 70 0 70 0 0 -30z m-250
-2 c-1 -20 -2 -21 -13 -8 -7 8 -21 17 -32 18 -34 6 -30 12 8 12 32 0 37 -3 37
-22z m90 -138 c0 -118 -2 -140 -15 -140 -12 0 -15 19 -15 109 0 72 -4 112 -11
117 -9 5 -10 -23 -5 -110 7 -102 6 -116 -8 -116 -14 0 -16 19 -16 140 l0 140
35 0 35 0 0 -140z m320 -10 c0 -143 -1 -150 -20 -150 -19 0 -20 7 -20 143 0
79 3 147 7 150 3 4 12 7 20 7 10 0 13 -32 13 -150z m60 -6 c0 -143 -1 -155
-17 -152 -16 3 -18 20 -21 156 -2 147 -2 152 18 152 19 0 20 -6 20 -156z m60
1 c0 -97 -4 -155 -10 -155 -6 0 -10 58 -10 155 0 97 4 155 10 155 6 0 10 -58
10 -155z m-1400 125 c0 -19 -7 -20 -145 -22 -80 -1 -155 -2 -167 -2 -16 -1
-24 6 -26 22 l-3 22 170 0 c164 0 171 -1 171 -20z m870 -125 c0 -118 -1 -125
-20 -125 -19 0 -20 7 -20 125 0 118 1 125 20 125 19 0 20 -7 20 -125z m590
-15 c0 -133 -1 -140 -20 -140 -19 0 -20 7 -20 140 0 133 1 140 20 140 19 0 20
-7 20 -140z m-357 119 c-8 -8 -25 -9 -60 -1 l-48 10 60 1 c43 1 56 -2 48 -10z
m418 -64 c16 -145 7 -228 -21 -199 -5 5 -10 66 -12 137 -3 109 -1 127 12 125
10 -2 17 -21 21 -63z m-1211 30 c0 -24 -2 -25 -67 -25 -38 0 -400 -5 -805 -12
-761 -12 -795 -11 -786 26 2 12 113 15 698 21 382 3 696 8 699 10 2 3 62 5
133 5 l128 0 0 -25z m700 -91 c0 -88 -3 -115 -12 -112 -25 8 -22 228 2 228 6
0 10 -49 10 -116z m-2570 96 c0 -6 -31 -10 -72 -10 -51 0 -68 3 -58 10 20 13
130 13 130 0z m2680 -100 l0 -110 -44 0 -43 0 -7 53 c-8 68 -8 152 1 160 3 4
26 7 50 7 l43 0 0 -110z m-2720 36 c0 -53 -6 -56 -103 -57 -40 0 -94 -4 -122
-7 -48 -7 -50 -8 -48 -36 1 -16 6 -32 10 -36 4 -5 82 -2 173 6 90 7 166 11
168 9 3 -2 7 -24 9 -48 l5 -45 -38 -6 c-89 -15 -325 -31 -339 -24 -12 7 -15
34 -15 148 l0 140 150 0 150 0 0 -44z m40 -1 c0 -25 -4 -45 -10 -45 -5 0 -10
20 -10 45 0 25 5 45 10 45 6 0 10 -20 10 -45z m1780 0 c0 -12 -18 -15 -104
-15 -57 0 -110 -2 -118 -5 -10 -4 -12 -42 -10 -180 2 -108 -1 -175 -7 -175
-40 0 -41 6 -41 201 l0 189 140 0 c118 0 140 -2 140 -15z m410 -150 c0 -209
-18 -213 -22 -4 -2 88 -1 162 1 165 15 15 21 -27 21 -161z m-411 116 c49 -13
33 -28 -36 -34 -45 -3 -81 0 -108 9 -22 7 -48 14 -57 14 -10 0 -18 5 -18 10 0
11 180 12 219 1z m331 -141 c0 -121 -3 -150 -14 -150 -21 0 -26 33 -26 173 0
120 1 127 20 127 19 0 20 -7 20 -150z m172 127 c23 -19 30 -37 43 -107 25
-142 22 -150 -51 -150 l-34 0 -2 73 -2 72 -3 -72 c-3 -51 -8 -73 -18 -77 -13
-5 -15 17 -15 139 l0 145 28 0 c15 -1 39 -11 54 -23z m-2255 -34 c-3 -10 -5
-2 -5 17 0 19 2 27 5 18 2 -10 2 -26 0 -35z m1820 5 c-3 -7 -5 -2 -5 12 0 14
2 19 5 13 2 -7 2 -19 0 -25z m137 -95 c39 -138 39 -137 -10 -141 l-41 -3 -22
54 c-22 54 -52 159 -48 164 3 2 60 17 87 22 3 1 18 -43 34 -96z m-184 -52 l0
-139 -62 -4 c-35 -2 -69 -2 -75 0 -10 3 -13 40 -13 137 0 152 -7 141 98 144
l52 1 0 -139z m30 -6 l0 -145 53 5 c28 3 112 12 185 20 174 19 262 20 262 1 0
-21 -21 -33 -65 -39 -22 -3 -83 -15 -135 -26 -75 -16 -416 -61 -735 -96 -67
-8 86 32 235 61 74 14 194 34 265 44 72 10 118 18 103 19 -45 2 -241 -28 -453
-69 -110 -21 -285 -48 -390 -60 -360 -41 -670 -80 -718 -91 -44 -10 -50 -10
-62 9 -8 11 -36 25 -62 31 -56 14 -93 36 -93 55 0 10 32 15 138 19 75 3 225
13 332 21 107 9 238 18 290 21 52 3 190 16 305 30 170 20 449 44 513 45 9 0
12 36 12 145 0 90 4 145 10 145 6 0 10 -55 10 -145z m45 4 c34 -109 33 -129
-5 -129 l-30 0 0 105 c0 58 2 105 5 105 2 0 16 -36 30 -81z m-585 52 c0 -4
-44 -13 -97 -18 l-98 -11 103 5 102 6 0 -32 0 -31 -125 0 c-104 0 -125 2 -125
15 0 12 -14 15 -70 15 -63 0 -70 2 -70 20 0 26 19 30 175 33 72 1 147 4 168 5
20 1 37 -2 37 -7z m-650 -26 c0 -14 5 -34 12 -45 7 -10 10 -21 8 -24 -3 -2
-36 -6 -75 -7 l-70 -4 -3 39 c-5 61 0 66 68 66 57 0 60 -1 60 -25z m-600 -61
c0 -15 -6 -24 -15 -24 -15 0 -21 40 -9 53 12 11 24 -3 24 -29z m2554 22 c-4
-12 -24 -13 -102 -9 -146 9 -155 22 -15 22 102 1 121 -1 117 -13z m-91 -21
c57 -4 97 -11 97 -17 0 -8 -30 -9 -92 -4 -109 8 -148 15 -148 27 0 5 10 7 23
5 12 -3 66 -8 120 -11z m-1195 -17 c-5 -13 -47 -19 -205 -32 -78 -6 -83 -5
-83 13 0 18 8 21 68 24 170 8 224 7 220 -5z m-558 -47 c0 -20 -6 -31 -17 -35
-10 -2 -87 -8 -172 -11 -124 -6 -155 -5 -162 6 -7 11 -9 10 -9 -3 0 -15 -9
-18 -57 -18 -69 0 -78 5 -88 48 l-7 32 81 0 c77 0 81 -1 82 -22 l2 -23 4 22
c5 26 24 29 216 31 l127 2 0 -29z m1832 -8 c3 -16 2 -62 -1 -103 l-6 -75 -8
48 c-5 26 -12 47 -17 47 -9 0 -19 -55 -23 -125 -2 -39 -1 -40 37 -45 22 -3 41
-11 44 -17 5 -18 -69 -17 -93 1 -16 12 -17 18 -7 57 10 35 32 195 32 232 0 4
8 7 19 7 12 0 20 -9 23 -27z m-1237 -3 c0 -19 -45 -28 -202 -36 -118 -6 -133
-5 -133 9 0 26 20 32 130 38 158 9 205 7 205 -11z m-5 -48 c0 -16 -15 -20
-127 -31 -71 -7 -143 -15 -160 -18 -29 -4 -33 -2 -33 16 0 11 1 22 3 22 1 1
214 20 300 28 10 0 17 -6 17 -17z m-580 -21 c0 -20 -6 -31 -17 -35 -31 -8
-373 -30 -379 -23 -3 3 3 19 15 35 21 30 22 30 148 37 71 3 133 8 138 10 6 2
29 4 53 4 40 1 42 0 42 -28z m2258 3 c80 -6 92 -9 92 -25 0 -15 -10 -19 -62
-22 l-63 -3 68 -2 c62 -2 82 -11 57 -27 -6 -4 -76 -1 -155 6 -108 9 -145 16
-145 26 0 7 12 14 28 14 23 2 24 2 5 6 -15 3 -23 12 -23 25 0 19 4 20 53 15
28 -4 94 -9 145 -13z m-2648 -6 c0 -7 -9 -24 -19 -37 -16 -21 -23 -23 -65 -17
-46 7 -53 16 -40 50 8 20 124 24 124 4z m580 -9 c16 -5 4 -6 -30 -3 -30 4 -62
10 -70 15 -17 10 60 1 100 -12z m1400 -89 c0 -55 -4 -102 -10 -105 -6 -4 -10
33 -10 105 0 72 4 109 10 105 6 -3 10 -50 10 -105z m-32 -51 c2 -145 2 -147
-20 -153 -13 -3 -26 -6 -29 -6 -3 0 -6 20 -6 45 0 25 4 45 9 45 4 0 8 4 8 9 0
6 -11 6 -27 0 -24 -8 -281 -59 -297 -59 -3 0 -6 6 -6 14 0 7 -7 19 -15 26 -9
7 -14 14 -12 16 3 3 335 54 351 54 2 0 2 36 0 81 -3 78 -3 80 19 77 21 -3 22
-7 25 -149z m-68 131 c0 -5 -12 -12 -27 -15 -72 -14 -118 -27 -123 -35 -3 -4
-58 -16 -123 -26 -90 -13 -120 -15 -129 -6 -8 8 -8 15 -3 20 6 5 87 21 180 36
94 16 172 30 174 32 9 8 51 4 51 -6z m117 -107 c-2 -21 -4 -4 -4 37 0 41 2 58
4 38 2 -21 2 -55 0 -75z m306 50 c-9 -3 -13 -26 -13 -64 0 -46 -3 -59 -15 -59
-12 0 -15 13 -15 58 0 66 0 67 32 69 13 0 17 -1 11 -4z m-419 -22 c-15 -12
-61 -23 -145 -35 -68 -10 -136 -20 -151 -23 -24 -5 -28 -2 -28 16 0 11 3 21 8
22 4 0 63 9 132 19 69 10 143 18 165 19 40 0 40 0 19 -18z m832 6 c0 -1 -1
-21 -4 -44 l-4 -43 -87 4 -86 5 88 -11 c85 -11 87 -12 87 -38 0 -43 -17 -50
-106 -42 l-79 7 0 48 c0 45 -7 58 -20 37 -3 -5 -12 -7 -20 -3 -16 5 -19 33 -8
72 l6 24 116 -7 c63 -4 116 -8 117 -9z m246 -10 c10 -16 -14 -19 -86 -10 -37
5 -61 13 -64 22 -4 12 8 13 69 7 40 -3 77 -12 81 -19z m-515 7 c44 -12 11 -24
-64 -24 -66 0 -74 2 -63 15 13 15 84 20 127 9z m-1470 -20 c-3 -3 -12 -4 -19
-1 -8 3 -5 6 6 6 11 1 17 -2 13 -5z m-1500 -20 c-3 -3 -12 -4 -19 -1 -8 3 -5
6 6 6 11 1 17 -2 13 -5z m2383 -9 c0 -10 -10 -15 -26 -15 -15 0 -74 -7 -132
-16 -69 -10 -108 -12 -115 -5 -10 10 -4 12 138 36 110 18 135 18 135 0z m600
0 c0 -12 -14 -15 -70 -15 -56 0 -70 3 -70 15 0 12 14 15 70 15 56 0 70 -3 70
-15z m-2852 -12 c15 -14 17 -47 20 -240 2 -140 0 -223 -6 -223 -6 0 -11 88
-14 224 -1 123 -6 227 -10 231 -4 4 -31 11 -60 15 l-53 8 53 1 c38 1 58 -4 70
-16z m1662 -123 l0 -129 -36 -7 c-38 -7 -59 8 -49 34 3 8 5 63 5 123 l0 109
40 0 40 0 0 -130z m50 -1 c0 -112 -1 -119 -20 -119 -19 0 -20 7 -20 124 0 119
1 124 20 119 19 -5 20 -14 20 -124z m40 12 c0 -96 -3 -120 -15 -125 -13 -5
-15 13 -15 119 0 104 2 125 15 125 12 0 15 -20 15 -119z m-240 -30 l0 -140
-43 -6 c-24 -4 -56 -5 -73 -3 l-29 3 -3 143 -3 142 76 0 75 0 0 -139z m30 4
c0 -83 -4 -135 -10 -135 -6 0 -10 52 -10 135 0 83 4 135 10 135 6 0 10 -52 10
-135z m-1490 105 c0 -11 -4 -20 -10 -20 -5 0 -10 9 -10 20 0 11 5 20 10 20 6
0 10 -9 10 -20z m1150 -150 c0 -100 -4 -160 -10 -160 -6 0 -10 60 -10 160 0
100 4 160 10 160 6 0 10 -60 10 -160z m50 5 c0 -148 -1 -155 -20 -155 -19 0
-20 7 -20 155 0 148 1 155 20 155 19 0 20 -7 20 -155z m1600 119 l0 -37 -46 7
c-26 3 -57 6 -69 6 -18 0 -24 7 -27 30 l-5 30 74 0 73 0 0 -36z m-1680 -129
c0 -148 -1 -155 -20 -155 -19 0 -20 7 -20 155 0 148 1 155 20 155 19 0 20 -7
20 -155z m-50 -4 c0 -143 -1 -150 -21 -156 -11 -4 -22 -5 -23 -3 -2 1 -7 72
-10 156 l-7 152 30 0 31 0 0 -149z m1549 89 c-5 -8 -18 -26 -29 -39 l-21 -25
-132 15 -132 14 -3 28 c-4 31 -1 32 71 13 29 -8 88 -17 130 -21 l77 -7 0 26
c0 16 5 26 15 26 8 0 15 6 16 13 0 6 4 3 8 -8 5 -11 5 -27 0 -35z m-1635 34
c14 -5 16 -28 16 -150 l0 -144 -24 0 c-13 0 -27 7 -30 16 -3 9 -6 76 -6 150 0
140 1 144 44 128z m853 -20 c32 -14 69 -30 83 -34 25 -8 24 -8 -5 -9 -32 -1
-128 39 -139 58 -10 16 -3 14 61 -15z m383 2 c0 -16 -207 -58 -229 -46 -21 11
-1 19 102 40 116 23 127 23 127 6z m0 -39 c0 -9 -34 -22 -97 -36 -54 -13 -104
-25 -110 -28 -7 -2 -13 3 -13 11 0 20 9 24 108 46 97 22 112 23 112 7z m-245
-70 l0 -46 21 20 c31 30 192 72 222 59 13 -5 32 -10 43 -10 15 0 20 -6 17 -22
-4 -26 8 -23 -553 -134 -214 -43 -384 -79 -379 -81 6 -2 215 37 464 87 250 50
460 88 467 86 7 -3 13 -12 13 -19 0 -10 -19 -17 -62 -21 -35 -4 -128 -21 -208
-37 -310 -65 -382 -78 -585 -114 -466 -80 -559 -98 -785 -146 -129 -28 -273
-59 -319 -71 -78 -19 -86 -19 -118 -4 -32 15 -33 17 -33 81 l0 65 53 1 c28 0
63 2 77 4 14 2 75 9 135 14 61 6 215 31 343 55 244 48 494 90 750 127 83 12
150 24 148 27 -3 2 -44 -1 -91 -8 -47 -7 -88 -10 -91 -7 -12 11 180 32 286 30
89 -2 109 0 88 8 -23 9 -28 17 -28 44 0 40 14 52 65 57 59 6 60 5 60 -45z
m-2105 -127 c0 -136 -2 -160 -15 -160 -13 0 -15 24 -15 154 0 147 2 157 28
165 1 1 2 -71 2 -159z m50 5 c0 -131 -2 -155 -15 -155 -13 0 -15 24 -15 155 0
131 2 155 15 155 13 0 15 -24 15 -155z m508 55 c2 -73 -1 -91 -21 -125 -43
-75 -120 -105 -168 -66 -20 16 -24 28 -23 68 1 26 8 65 17 86 13 31 21 37 46
37 35 0 35 -1 20 37 -14 38 10 55 76 51 l50 -3 3 -85z m-658 -80 c0 -136 -2
-160 -15 -160 -13 0 -15 24 -15 160 0 136 2 160 15 160 13 0 15 -24 15 -160z
m40 5 c0 -131 -2 -155 -15 -155 -13 0 -15 24 -15 155 0 131 2 155 15 155 13 0
15 -24 15 -155z m-90 -15 c0 -136 -2 -160 -15 -160 -13 0 -15 24 -15 160 0
136 2 160 15 160 13 0 15 -24 15 -160z m-40 -5 l0 -155 -25 0 -25 0 0 155 0
155 25 0 25 0 0 -155z m1065 124 c4 -6 5 -13 2 -15 -3 -3 -64 -13 -136 -22
-102 -13 -133 -14 -143 -4 -6 6 -10 14 -7 16 6 7 194 34 241 35 20 1 40 -4 43
-10z m-5 -48 c0 -5 12 -14 28 -19 l27 -10 -25 -5 c-27 -7 -249 -41 -265 -42
-17 0 -18 45 -1 51 19 7 171 31 209 33 15 0 27 -3 27 -8z m1655 -168 c0 -223
-18 -239 -25 -23 l-6 155 -2 -148 c-2 -148 -2 -148 -24 -145 -23 3 -23 4 -20
163 4 169 6 177 52 173 l25 -3 0 -172z m273 157 c31 0 32 -1 32 -41 l0 -41
-35 21 c-19 11 -50 23 -70 27 -26 5 -35 11 -35 26 0 18 4 20 38 14 20 -3 52
-6 70 -6z m-378 -150 l-7 -145 -1 110 c-2 93 6 193 13 183 1 -2 -1 -68 -5
-148z m259 -30 c2 -157 0 -180 -13 -180 -14 0 -16 23 -16 174 0 130 3 176 13
179 6 3 13 6 13 6 1 1 2 -80 3 -179z m405 153 c-4 -16 -7 -29 -8 -30 -1 0 -18
-4 -38 -8 -34 -7 -38 -5 -38 14 0 14 11 26 33 35 50 22 58 20 51 -11z m-146
-190 c2 -198 2 -201 -18 -196 -19 5 -20 13 -20 205 0 185 1 199 18 196 15 -3
17 -22 20 -205z m319 197 c118 -16 122 -17 116 -40 -4 -13 -14 -20 -30 -20
-42 0 -168 21 -177 30 -8 8 -2 40 8 40 2 0 40 -5 83 -10z m-269 -208 c2 -177
1 -201 -13 -196 -13 5 -15 36 -15 206 0 155 3 199 13 196 9 -4 13 -56 15 -206z
m-2040 156 l-3 -43 -105 -21 c-58 -12 -126 -24 -152 -28 l-48 -7 0 44 0 45 68
11 c37 7 101 18 142 25 108 20 102 22 98 -26z m1776 -6 c0 -12 -1 -85 -2 -162
-2 -119 -4 -139 -17 -134 -12 5 -15 33 -15 166 0 146 1 159 18 156 10 -2 17
-12 16 -26z m-676 1 c-10 -2 -26 -2 -35 0 -10 3 -2 5 17 5 19 0 27 -2 18 -5z
m107 -152 c0 -151 0 -153 -23 -162 -13 -5 -28 -9 -33 -9 -5 0 -9 67 -9 159 0
144 2 160 18 164 46 13 47 11 47 -152z m925 -8 c0 -170 -7 -193 -57 -193 l-23
0 0 174 0 175 33 3 c17 2 35 2 40 0 4 -2 7 -73 7 -159z m170 157 c106 -17 120
-21 120 -36 0 -17 -25 -18 -106 -4 -96 17 -104 20 -104 35 0 18 5 18 90 5z
m-862 -122 c-3 -108 -5 -123 -20 -126 -16 -3 -18 8 -18 122 0 120 1 126 20
126 20 0 20 -5 18 -122z m-308 -52 l0 -154 -31 -7 c-17 -4 -32 -5 -34 -3 -2 1
-5 74 -7 161 l-3 157 38 0 37 0 0 -154z m165 144 c4 -6 4 -64 0 -130 -6 -86
-11 -120 -21 -124 -11 -4 -14 19 -14 129 0 111 3 135 14 135 8 0 18 -5 21 -10z
m553 -137 c3 -150 2 -154 -42 -137 -14 5 -16 28 -16 146 l0 139 28 -3 27 -3 3
-142z m37 125 c3 -13 4 -78 3 -146 -4 -174 -22 -158 -26 23 -2 93 1 145 8 145
5 0 12 -10 15 -22z m-515 -103 c0 -96 -3 -115 -15 -115 -12 0 -15 19 -15 115
0 96 3 115 15 115 12 0 15 -19 15 -115z m958 94 c66 -9 92 -17 92 -27 0 -10
-9 -12 -37 -8 -158 23 -193 30 -193 36 0 13 14 20 29 16 9 -3 58 -10 109 -17z
m-708 -110 c0 -81 -3 -99 -15 -99 -12 0 -15 18 -15 105 0 89 2 104 15 99 12
-5 15 -26 15 -105z m70 -5 c0 -114 0 -115 -22 -112 -22 3 -23 7 -26 116 l-3
112 26 0 25 0 0 -116z m240 -29 c0 -115 -2 -134 -15 -129 -12 5 -15 30 -15
135 0 108 2 129 15 129 13 0 15 -22 15 -135z m-1160 75 c0 -38 -2 -40 -30 -40
-23 0 -30 4 -30 20 0 12 7 20 18 21 9 0 12 3 5 5 -7 3 -21 0 -32 -6 -20 -10
-21 -19 -21 -195 0 -159 -2 -185 -15 -185 -13 0 -15 26 -13 193 l3 192 50 17
c67 23 65 24 65 -22z m-1552 3 c2 -14 -4 -23 -15 -27 -27 -8 -364 -76 -380
-76 -8 0 -13 12 -13 30 0 26 4 30 28 31 15 0 101 15 192 33 91 19 170 32 175
31 6 -1 11 -11 13 -22z m1422 -202 c0 -146 -3 -181 -15 -191 -13 -11 -15 10
-15 179 0 163 2 191 15 191 13 0 15 -27 15 -179z m400 64 c0 -117 -3 -113 72
-91 49 15 313 76 329 76 5 0 9 -13 9 -29 0 -28 -3 -30 -77 -48 -43 -10 -70
-19 -60 -21 9 -2 33 2 53 8 19 7 37 10 40 7 9 -8 -133 -56 -379 -127 -313 -90
-1200 -388 -1517 -509 -85 -32 -158 -57 -162 -54 -26 15 8 33 139 73 81 24
143 45 137 47 -5 1 -67 -15 -139 -36 -71 -21 -133 -37 -137 -34 -5 2 -8 24 -8
49 0 42 1 44 24 38 30 -7 297 70 313 92 9 13 17 14 50 4 30 -9 46 -8 78 4 22
8 35 15 28 15 -6 1 -23 -3 -36 -8 -22 -9 -26 -7 -32 16 -3 14 -2 29 2 32 20
16 155 43 165 33 18 -18 1 -39 -44 -55 -24 -9 -36 -16 -28 -16 8 0 33 8 56 18
36 16 40 22 37 47 -4 29 -3 29 84 51 48 12 187 49 308 82 121 32 232 59 245
59 14 0 61 11 105 25 l80 24 3 137 c2 112 5 136 17 136 12 0 15 -20 15 -114
l0 -115 91 25 c133 35 124 24 120 153 -2 76 1 111 8 111 7 0 11 -36 11 -105z
m-544 84 l44 -11 0 -169 c0 -162 -1 -169 -20 -169 -19 0 -20 8 -22 167 l-3
167 -40 12 c-51 16 -18 18 41 3z m492 -14 c2 -29 -27 -45 -79 -45 -29 0 -40
15 -16 23 6 2 2 2 -10 0 -24 -4 -31 11 -11 23 14 9 66 22 93 23 15 1 21 -6 23
-24z m1365 8 c4 -2 7 -9 7 -15 0 -7 -17 -8 -47 -4 -65 9 -83 15 -83 27 0 10
104 3 123 -8z m-1585 -135 c3 -137 2 -138 -20 -139 -17 -1 -19 -2 -5 -6 22 -6
12 -23 -14 -23 -18 0 -19 8 -19 148 0 82 3 152 7 156 4 4 16 6 28 4 19 -3 20
-11 23 -140z m-430 -62 c1 -104 -1 -193 -5 -197 -5 -3 -25 -10 -45 -13 l-37
-7 -3 198 c-2 124 1 201 7 206 6 4 26 6 45 5 l35 -3 3 -189z m240 32 c-2 -118
-6 -162 -15 -166 -10 -3 -13 34 -13 162 0 142 2 166 15 166 13 0 15 -22 13
-162z m1797 126 c7 -3 11 -14 7 -26 -4 -19 -10 -20 -61 -14 -86 10 -101 16
-101 38 0 19 4 20 71 14 39 -4 77 -10 84 -12z m-2150 -19 c6 -1 9 -23 7 -49
l-4 -46 -42 -2 -41 -1 43 -4 42 -4 0 -68 c0 -37 3 -95 6 -128 6 -58 6 -60 -19
-67 -14 -3 -32 -9 -41 -12 -14 -5 -16 5 -16 77 -1 57 -5 90 -15 103 -9 12 -14
42 -14 80 0 34 -2 79 -6 100 l-8 38 49 -7 c27 -4 54 -8 59 -10z m623 -82 c-2
-66 -7 -98 -15 -101 -10 -3 -13 20 -13 91 0 51 3 97 7 100 19 19 23 -2 21 -90z
m152 63 c0 -19 -7 -25 -32 -29 -18 -3 -48 -9 -65 -13 -29 -6 -33 -4 -33 13 0
16 12 24 53 36 71 21 77 21 77 -7z m-1940 -6 c8 -5 11 -10 5 -10 -5 0 -17 5
-25 10 -8 5 -10 10 -5 10 6 0 17 -5 25 -10z m97 -3 c21 -12 22 -18 25 -207 2
-107 1 -177 -4 -155 -4 22 -7 108 -7 192 l-1 151 -42 15 c-33 12 -37 16 -18
16 14 0 35 -5 47 -12z m538 3 c-16 -4 -39 -8 -50 -8 -16 0 -15 2 5 8 14 4 36
8 50 8 22 0 22 -1 -5 -8z m-580 -22 c24 -11 25 -13 8 -19 -14 -6 -12 -8 10 -8
l27 -1 0 -144 c0 -79 2 -156 5 -172 7 -36 -2 -49 -38 -58 l-28 -7 2 202 c1
162 -1 203 -12 210 -20 13 -4 11 26 -3z m460 -4 c-27 -7 -57 -13 -65 -13 -21
1 70 27 95 27 11 0 -2 -6 -30 -14z m183 7 c8 -5 12 -17 10 -27 -4 -21 -25 -29
-202 -70 -66 -15 -115 -29 -110 -31 6 -2 66 10 135 27 138 33 159 36 159 17 0
-8 -56 -25 -162 -49 -90 -19 -165 -34 -167 -32 -3 3 0 9 7 16 8 8 7 14 -4 25
-17 18 -18 47 -1 61 9 7 264 64 317 71 3 0 11 -3 18 -8z m-716 -15 l26 -6 2
-195 c0 -132 -3 -195 -10 -195 -6 0 -13 6 -16 14 -11 29 -19 366 -9 370 6 3 1
5 -10 5 -11 1 -27 6 -35 12 -12 8 -11 9 5 6 11 -3 32 -8 47 -11z m1956 -17
c-2 -16 -17 -26 -63 -40 -33 -10 -61 -19 -62 -19 -2 0 -3 11 -3 24 0 21 8 27
48 39 69 22 84 21 80 -4z m-1533 1 c-27 -12 -43 -12 -25 0 8 5 22 9 30 9 10 0
8 -3 -5 -9z m-477 -67 c7 -38 19 -126 28 -197 13 -108 14 -130 3 -137 -31 -19
-33 -9 -49 186 -6 72 -13 149 -16 173 -5 33 -3 42 8 42 10 0 18 -20 26 -67z
m-44 24 c3 -12 6 -49 6 -82 0 -33 5 -111 11 -174 8 -92 8 -115 -3 -122 -10 -7
-15 25 -25 159 l-12 167 4 -168 c4 -166 4 -168 -18 -176 l-22 -8 -5 201 c-3
110 -1 208 4 217 12 22 53 12 60 -14z m-75 -191 c3 -206 2 -215 -18 -225 -11
-6 -24 -11 -30 -11 -8 0 -11 71 -11 219 l0 220 28 4 c15 2 27 5 27 6 1 0 2
-95 4 -213z m2144 191 c4 -10 -16 -20 -62 -35 -80 -26 -81 -26 -81 -7 0 9 23
21 63 34 78 24 74 24 80 8z m-1259 -64 c4 -9 3 -20 -1 -23 -4 -4 -83 -25 -175
-47 l-168 -40 0 23 c0 26 10 30 210 77 130 31 127 30 134 10z m343 -19 c13 -4
20 -11 17 -16 -3 -5 2 -8 12 -6 15 2 20 -4 22 -29 3 -32 1 -34 -74 -68 -42
-19 -80 -35 -85 -35 -5 0 -9 16 -9 36 0 34 3 37 60 61 73 32 73 42 -1 13 -46
-19 -58 -20 -101 -9 -27 6 -47 13 -44 16 7 7 138 41 161 42 11 0 30 -2 42 -5z
m-707 -14 c0 -5 -8 -10 -17 -10 -15 0 -16 2 -3 10 19 12 20 12 20 0z m2050
-50 c0 -47 -3 -60 -15 -60 -12 0 -15 13 -15 60 0 47 3 60 15 60 12 0 15 -13
15 -60z m-1690 30 c0 -10 -34 -21 -224 -69 -125 -33 -176 -38 -176 -20 0 7 12
9 34 5 22 -4 36 -2 38 5 2 6 73 28 158 49 181 45 170 43 170 30z m1638 -24 c1
-15 -6 -27 -21 -35 l-22 -11 23 6 c14 3 22 1 22 -8 0 -11 -49 -34 -134 -62
-10 -4 -17 -9 -14 -11 3 -3 37 7 77 22 39 14 74 23 78 19 11 -10 -10 -21 -122
-64 -137 -54 -148 -57 -143 -41 2 7 -4 21 -14 31 -10 10 -18 31 -18 47 0 31 5
35 73 47 l37 6 0 -41 c0 -38 -3 -43 -31 -53 -16 -6 -28 -12 -26 -14 2 -2 18 1
35 7 30 10 32 14 32 59 0 54 16 75 26 35 7 -28 12 -30 34 -14 13 9 12 10 -2 5
-14 -4 -18 0 -18 18 0 20 11 28 63 49 34 15 62 26 62 27 0 0 2 -11 3 -24z
m493 -6 l26 0 -5 -82 c-2 -46 -5 -84 -7 -85 -2 -4 -100 24 -152 43 -24 9 -43
20 -43 26 0 7 4 7 13 0 6 -5 49 -21 95 -35 l82 -25 -1 61 c-1 34 -3 54 -6 44
-4 -14 -11 -17 -26 -13 -12 3 -48 11 -79 17 -53 11 -58 14 -58 39 0 15 2 29 5
32 3 3 34 -1 68 -8 34 -7 74 -13 88 -14z m-2493 -8 c3 -19 -1 -23 -15 -20 -10
2 -19 14 -21 26 -3 19 1 23 15 20 10 -2 19 -14 21 -26z m1827 17 c11 -17 0
-20 -21 -4 -17 13 -17 14 -2 15 9 0 20 -5 23 -11z m-1441 -18 c16 -24 -87 -74
-249 -120 -129 -36 -121 -35 -129 -16 -4 11 9 19 54 32 33 9 58 18 56 20 -2 2
-29 -2 -60 -10 -31 -9 -56 -11 -56 -6 0 4 19 13 43 20 135 37 323 88 329 88 4
1 9 -3 12 -8z m196 -41 c0 -29 -1 -30 -47 -30 -58 1 -101 21 -81 37 17 14 44
20 91 22 35 1 37 -1 37 -29z m180 -33 l0 -44 -60 -16 c-78 -22 -80 -22 -80 12
0 27 7 33 63 60 34 17 65 31 70 31 4 0 7 -20 7 -43z m997 37 c-3 -3 -12 -4
-19 -1 -8 3 -5 6 6 6 11 1 17 -2 13 -5z m-130 -156 c-24 -15 -27 -7 -27 66 0
51 4 76 13 79 17 6 32 -134 14 -145z m90 146 c-3 -3 -12 -4 -19 -1 -8 3 -5 6
6 6 11 1 17 -2 13 -5z m568 -55 c0 -17 -17 -15 -107 12 -41 12 -68 25 -68 33
0 11 18 9 88 -8 59 -15 87 -27 87 -37z m130 43 c51 -13 71 -23 73 -36 7 -32
-12 -35 -83 -12 -56 17 -71 26 -73 44 -4 26 -5 26 83 4z m239 12 c14 -5 16
-30 16 -175 0 -96 -4 -169 -9 -169 -39 0 -41 7 -41 181 0 96 4 169 9 169 5 0
16 -3 25 -6z m-564 -50 c0 -19 -4 -34 -10 -34 -5 0 -10 18 -10 41 0 24 4 38
10 34 6 -3 10 -22 10 -41z m660 -144 l0 -178 -27 7 -28 7 -3 176 -2 175 30 -5
30 -4 0 -178z m-1160 106 c0 -56 -4 -75 -15 -80 -12 -4 -15 7 -15 68 0 40 3
76 7 79 17 18 23 1 23 -67z m1246 59 c4 -8 12 -15 20 -15 8 0 14 -4 14 -10 0
-5 -15 -7 -32 -5 l-33 5 33 -12 32 -11 0 -168 c0 -183 2 -178 -57 -157 l-33
12 0 176 c0 177 4 200 37 200 8 0 16 -7 19 -15z m-1286 -75 c0 -64 -3 -80 -15
-80 -12 0 -15 15 -15 73 0 41 3 77 7 80 17 18 23 0 23 -73z m-976 55 c6 -16
-22 -31 -130 -70 l-51 -18 -54 26 c-52 26 -47 37 7 17 19 -7 30 -7 40 1 19 16
134 58 160 58 12 1 25 -6 28 -14z m936 -65 c0 -47 -4 -80 -10 -80 -11 0 -14
142 -3 153 12 13 13 7 13 -73z m685 50 c83 -21 93 -26 81 -37 -7 -8 -121 14
-148 28 -10 5 -18 14 -18 19 0 13 -6 13 85 -10z m-717 -67 c-2 -50 -7 -78 -15
-81 -10 -3 -13 17 -13 77 0 66 3 81 15 81 13 0 15 -13 13 -77z m-1210 50 c-4
-22 -225 -88 -263 -79 -14 4 -25 10 -25 15 0 4 53 22 118 40 64 18 122 34 127
36 27 9 46 4 43 -12z m1150 -144 c-10 -7 -14 9 -16 68 -2 54 1 79 10 84 10 7
14 -9 16 -68 2 -54 -1 -79 -10 -84z m1004 124 l88 -26 0 -67 c0 -96 -9 -101
-116 -66 l-84 27 0 57 c0 58 8 102 18 102 3 0 45 -12 94 -27z m-1849 -2 c-4
-14 -24 -25 -71 -40 -109 -32 -125 -35 -120 -21 3 11 156 76 185 79 6 0 9 -7
6 -18z m817 -61 c0 -61 -3 -80 -14 -80 -17 0 -26 31 -26 97 0 47 6 59 33 62 4
1 7 -35 7 -79z m828 54 c43 -11 72 -23 72 -31 0 -17 -10 -16 -99 10 -41 12
-76 28 -79 36 -3 9 2 11 14 8 11 -3 52 -13 92 -23z m726 -116 c3 -79 3 -155
-2 -171 -7 -26 -8 -27 -30 -12 -21 16 -22 22 -22 171 l0 154 23 0 c24 0 24 -1
31 -142z m-2956 114 c2 -7 -3 -12 -12 -12 -9 0 -16 7 -16 16 0 17 22 14 28 -4z
m2102 -18 c0 -13 -4 -24 -9 -24 -11 0 -19 30 -14 48 7 20 23 3 23 -24z m508
20 c8 -2 12 -33 12 -109 0 -116 -1 -117 -64 -91 l-33 14 4 88 c3 49 6 95 8
102 4 11 27 10 73 -4z m-1260 -71 c-2 -60 -7 -78 -18 -81 -13 -2 -14 11 -12
78 3 62 7 80 18 80 12 0 14 -15 12 -77z m1654 -94 c-2 -145 -5 -170 -18 -167
-8 2 -15 6 -15 11 1 4 1 79 1 167 0 146 2 160 18 160 16 0 17 -14 14 -171z
m-3154 135 c-3 -25 -14 -30 -183 -85 -239 -77 -235 -77 -235 -46 0 22 9 29 87
57 94 34 299 97 321 99 9 1 12 -8 10 -25z m1452 -54 c0 -68 -3 -81 -19 -90
-11 -5 -22 -10 -25 -10 -3 0 -6 38 -6 84 0 86 1 88 43 95 4 0 7 -35 7 -79z
m916 44 c75 -23 84 -28 84 -50 0 -30 -7 -30 -100 5 -59 21 -76 32 -78 49 -4
27 -7 27 94 -4z m-1951 -14 c0 -9 -37 -24 -115 -47 -63 -18 -116 -32 -117 -33
-2 0 -3 9 -3 20 0 15 12 23 53 34 28 8 75 21 102 29 59 18 80 17 80 -3z m955
-70 c0 -64 -3 -80 -15 -80 -12 0 -15 16 -15 80 0 64 3 80 15 80 12 0 15 -16
15 -80z m-52 -12 c-2 -54 -7 -83 -15 -86 -10 -3 -13 17 -13 76 0 43 3 82 7 85
18 19 24 0 21 -75z m882 -114 c0 -123 -3 -185 -10 -182 -7 2 -12 72 -14 186
-2 146 0 182 11 182 10 0 13 -38 13 -186z m-920 96 c0 -66 -3 -82 -16 -87 -27
-10 -44 25 -44 88 0 45 4 60 18 68 37 22 42 14 42 -69z m-860 35 c0 -19 -3
-35 -7 -35 -5 0 -59 -15 -120 -34 l-113 -34 0 39 c0 37 2 39 43 49 23 6 69 19
102 29 89 28 95 27 95 -14z m-270 -16 c0 -12 -5 -16 -15 -13 -8 4 -15 15 -15
25 0 12 5 16 15 13 8 -4 15 -15 15 -25z m1058 -9 c1 -19 -1 -40 -5 -45 -14
-19 -166 -103 -242 -134 -65 -27 -76 -29 -99 -17 l-25 13 34 7 c56 11 280 128
302 158 17 23 18 29 6 44 -12 14 -11 16 6 13 15 -3 21 -13 23 -39z m-1058 -46
c0 -15 -6 -24 -15 -24 -10 0 -15 10 -15 30 0 22 4 28 15 24 8 -4 15 -17 15
-30z m-212 -157 c2 -172 2 -178 -16 -168 -17 9 -20 27 -24 173 -3 90 -4 167
-1 171 3 4 12 7 21 5 15 -3 17 -25 20 -181z m-56 16 c2 -82 2 -150 1 -152 -1
-1 -6 0 -12 4 -14 8 -15 295 -2 295 6 0 11 -63 13 -147z m2412 127 c17 -17 -7
-30 -47 -23 -35 5 -47 20 -30 37 10 9 64 -1 77 -14z m-294 -15 c0 -23 -96 -67
-131 -60 -29 7 -41 25 -15 25 8 0 38 11 68 25 61 29 78 31 78 10z m-1224 -22
c13 -17 14 -17 7 1 -4 14 -3 17 6 12 6 -4 10 -20 8 -34 -3 -23 -18 -35 -95
-75 l-93 -48 -34 21 c-19 12 -35 25 -35 30 0 15 180 107 214 109 5 1 15 -7 22
-16z m-1036 -113 c0 -98 -2 -110 -19 -120 -11 -5 -22 -10 -25 -10 -3 0 -6 52
-6 115 0 98 2 115 17 124 10 5 21 7 25 5 5 -3 8 -54 8 -114z m1484 101 c24
-26 3 -37 -29 -14 -13 10 -25 21 -25 26 0 15 37 6 54 -12z m851 -1 c6 -10
-149 -90 -174 -90 -6 0 -11 9 -11 21 0 38 166 100 185 69z m299 -40 c72 -30
94 -54 62 -66 -15 -6 -144 42 -165 62 -17 15 -6 48 13 41 8 -3 49 -20 90 -37z
m-2694 -85 c0 -96 -3 -115 -15 -115 -12 0 -15 19 -15 115 0 96 3 115 15 115
12 0 15 -19 15 -115z m2067 82 c29 -12 53 -25 53 -29 0 -12 -13 -10 -53 7 -52
22 -79 18 -32 -4 22 -11 34 -20 27 -20 -18 -1 -112 48 -112 58 0 25 36 22 117
-12z m-2113 -54 c10 -127 8 -151 -14 -163 -17 -9 -22 -7 -30 15 -11 29 -14
208 -3 218 3 4 14 7 23 7 14 0 18 -14 24 -77z m2460 50 c-4 -10 -10 -44 -12
-76 l-4 -58 -55 -25 c-31 -13 -57 -24 -59 -24 -2 0 -4 33 -4 74 l0 73 58 26
c68 32 87 34 76 10z m-1664 -62 c0 -61 2 -69 21 -74 34 -9 18 -26 -46 -53 -33
-13 -61 -24 -63 -24 -1 0 -1 43 0 97 l3 96 35 13 c19 7 38 13 43 13 4 1 7 -30
7 -68z m1169 43 c55 -24 78 -44 51 -44 -12 0 -120 60 -120 66 0 7 7 5 69 -22z
m265 20 c20 -8 21 -34 1 -34 -8 0 -24 9 -35 20 -19 19 -19 20 -1 20 11 0 26
-3 35 -6z m534 -69 c34 -16 44 -45 15 -45 -28 1 -177 67 -181 80 -9 26 22 27
77 3 31 -13 71 -31 89 -38z m-1594 33 c15 -56 10 -62 -79 -102 -83 -38 -86
-38 -106 -20 -20 18 -20 18 13 36 18 9 29 17 25 18 -5 0 -17 -5 -28 -10 -10
-6 -19 -7 -19 -2 0 10 159 102 176 102 7 0 14 -10 18 -22z m1706 -13 c-13 -14
-26 -23 -28 -20 -7 7 29 45 41 45 6 0 0 -11 -13 -25z m-2180 -65 c0 -49 -6
-95 -15 -117 -8 -19 -15 -61 -15 -93 0 -55 -2 -59 -29 -68 l-29 -10 -4 151
c-5 162 -4 177 18 177 11 0 14 -30 17 -142 l3 -143 0 158 c-1 158 1 165 37
166 15 1 17 -9 17 -79z m1470 -43 l0 -113 -42 -23 c-24 -12 -33 -14 -20 -5 21
15 22 24 22 129 0 113 3 125 27 125 10 0 13 -26 13 -113z m70 27 c0 -54 -4
-83 -10 -79 -5 3 -10 42 -10 86 0 46 4 79 10 79 6 0 10 -35 10 -86z m80 12 c0
-76 -7 -91 -44 -98 -17 -3 -20 4 -23 64 -3 57 -1 70 17 88 39 39 50 27 50 -54z
m-200 -49 c0 -111 -1 -114 -25 -127 -13 -7 -22 -16 -20 -20 5 -8 -18 -20 -36
-20 -5 0 -9 58 -9 130 l0 129 33 10 c59 17 57 20 57 -102z m576 70 c96 -39
104 -44 104 -63 0 -28 -30 -26 -113 6 -85 34 -107 51 -107 83 0 21 2 21 116
-26z m275 16 c47 -17 65 -35 53 -54 -8 -14 -51 -11 -116 7 -83 24 -98 5 -21
-25 32 -12 68 -29 81 -37 23 -15 32 -50 10 -41 -7 4 -43 18 -80 33 -93 38 -99
69 -23 116 37 22 36 22 96 1z m-2391 -162 c0 -136 -3 -170 -14 -174 -8 -3 -17
-3 -20 0 -8 9 -8 328 1 336 3 4 12 7 20 7 10 0 13 -35 13 -169z m1096 137 c-3
-13 -6 -42 -6 -65 0 -65 -26 -57 -33 10 -4 40 -2 55 11 65 24 18 35 15 28 -10z
m1564 3 c0 -4 -13 -12 -30 -18 l-30 -11 0 -131 c0 -110 -2 -131 -15 -131 -13
0 -15 23 -15 143 0 79 2 146 5 149 8 8 85 7 85 -1z m-163 -29 c-9 -10 -23 -33
-31 -52 -15 -35 -15 -35 -16 -7 0 34 27 77 48 77 13 0 13 -2 -1 -18z m63 -122
c0 -72 -3 -130 -6 -130 -3 0 -14 5 -25 10 -17 10 -19 22 -19 124 0 62 3 116 7
119 3 4 15 7 25 7 17 0 18 -11 18 -130z m-2235 71 c-14 -14 -205 -93 -216 -89
-6 2 -4 11 3 21 18 24 200 98 213 86 6 -6 6 -12 0 -18z m2392 11 c-14 -15 -17
-41 -17 -140 0 -134 -2 -137 -60 -107 l-30 16 0 118 0 118 29 -5 c16 -2 37 1
48 7 10 6 24 11 32 11 11 0 11 -4 -2 -18z m-3099 -13 c2 -12 -22 -25 -95 -53
-91 -34 -98 -36 -110 -19 -17 23 -9 29 78 63 81 31 122 34 127 9z m2487 -10
c42 -18 74 -34 72 -36 -4 -3 -147 55 -156 63 -11 10 16 1 84 -27z m222 -19
c41 -16 81 -30 89 -30 8 0 14 -7 14 -15 0 -8 -8 -15 -17 -15 -29 1 -176 64
-181 78 -6 18 13 15 95 -18z m-1987 -22 l0 -43 -103 -42 c-150 -63 -137 -61
-137 -16 l0 39 113 51 c61 28 115 51 120 52 4 0 7 -18 7 -41z m1995 -24 c86
-33 107 -49 89 -67 -4 -3 -34 4 -68 17 -122 47 -136 54 -130 70 3 9 8 16 10
16 2 0 47 -16 99 -36z m-430 -68 c33 -18 61 -40 63 -49 5 -25 -10 -21 -109 29
-73 36 -88 48 -79 59 14 17 40 9 125 -39z m-655 35 c0 -12 -131 -84 -138 -76
-11 11 14 40 54 62 40 23 84 30 84 14z m780 5 c0 -3 -4 -8 -10 -11 -5 -3 -10
-1 -10 4 0 6 5 11 10 11 6 0 10 -2 10 -4z m-149 -82 c61 -30 88 -49 82 -55
-13 -13 -197 77 -188 91 9 14 6 15 106 -36z"/>
<path d="M3453 4205 c0 -27 2 -38 4 -22 2 15 2 37 0 50 -2 12 -4 0 -4 -28z"/>
<path d="M3442 4115 c0 -16 2 -22 5 -12 2 9 2 23 0 30 -3 6 -5 -1 -5 -18z"/>
<path d="M3421 4114 c0 -11 3 -14 6 -6 3 7 2 16 -1 19 -3 4 -6 -2 -5 -13z"/>
<path d="M4858 4323 c7 -3 16 -2 19 1 4 3 -2 6 -13 5 -11 0 -14 -3 -6 -6z"/>
<path d="M3158 3763 c6 -2 18 -2 25 0 6 3 1 5 -13 5 -14 0 -19 -2 -12 -5z"/>
<path d="M3108 4001 c4 -27 1 -30 -29 -34 l-34 -4 38 -1 c36 -2 37 -1 37 33 0
19 -4 35 -8 35 -5 0 -7 -13 -4 -29z"/>
<path d="M2876 3935 c17 -7 44 -16 60 -20 25 -4 24 -3 -6 8 -19 8 -46 17 -60
20 -19 5 -17 3 6 -8z"/>
<path d="M3313 3835 c0 -33 2 -45 4 -27 2 18 2 45 0 60 -2 15 -4 0 -4 -33z"/>
<path d="M4962 3705 c0 -16 2 -22 5 -12 2 9 2 23 0 30 -3 6 -5 -1 -5 -18z"/>
<path d="M2768 3583 c7 -3 16 -2 19 1 4 3 -2 6 -13 5 -11 0 -14 -3 -6 -6z"/>
<path d="M4033 3160 c0 -30 2 -43 4 -27 2 15 2 39 0 55 -2 15 -4 2 -4 -28z"/>
<path d="M2431 2705 c0 -38 2 -46 10 -33 6 11 6 29 0 50 -9 32 -9 31 -10 -17z"/>
<path d="M3908 1973 c6 -2 18 -2 25 0 6 3 1 5 -13 5 -14 0 -19 -2 -12 -5z"/>
<path d="M3808 1963 c12 -2 32 -2 45 0 12 2 2 4 -23 4 -25 0 -35 -2 -22 -4z"/>
<path d="M4658 1903 c18 -2 45 -2 60 0 15 2 0 4 -33 4 -33 0 -45 -2 -27 -4z"/>
<path d="M3503 1513 c9 -2 23 -2 30 0 6 3 -1 5 -18 5 -16 0 -22 -2 -12 -5z"/>
<path d="M3098 1363 c7 -3 16 -2 19 1 4 3 -2 6 -13 5 -11 0 -14 -3 -6 -6z"/>
<path d="M3058 1353 c7 -3 16 -2 19 1 4 3 -2 6 -13 5 -11 0 -14 -3 -6 -6z"/>
<path d="M3805 1022 c-33 -8 -55 -17 -50 -18 6 -2 42 5 80 15 39 11 61 19 50
19 -11 0 -47 -7 -80 -16z"/>
<path d="M3718 993 c7 -3 16 -2 19 1 4 3 -2 6 -13 5 -11 0 -14 -3 -6 -6z"/>
<path d="M3920 860 c-8 -5 -10 -10 -5 -10 6 0 17 5 25 10 8 5 11 10 5 10 -5 0
-17 -5 -25 -10z"/>
<path d="M2338 873 c7 -3 16 -2 19 1 4 3 -2 6 -13 5 -11 0 -14 -3 -6 -6z"/>
<path d="M2278 863 c7 -3 16 -2 19 1 4 3 -2 6 -13 5 -11 0 -14 -3 -6 -6z"/>
<path d="M2208 843 c7 -3 16 -2 19 1 4 3 -2 6 -13 5 -11 0 -14 -3 -6 -6z"/>
<path d="M2168 833 c7 -3 16 -2 19 1 4 3 -2 6 -13 5 -11 0 -14 -3 -6 -6z"/>
<path d="M2570 375 c-25 -13 -40 -24 -35 -24 6 0 30 11 55 24 25 13 41 24 35
24 -5 0 -30 -11 -55 -24z"/>
<path d="M1332 4390 c0 -19 2 -27 5 -17 2 9 2 25 0 35 -3 9 -5 1 -5 -18z"/>
<path d="M3 3470 c0 -30 2 -43 4 -27 2 15 2 39 0 55 -2 15 -4 2 -4 -28z"/>
<path d="M5102 2215 c0 -16 2 -22 5 -12 2 9 2 23 0 30 -3 6 -5 -1 -5 -18z"/>
<path d="M1523 1873 c9 -2 23 -2 30 0 6 3 -1 5 -18 5 -16 0 -22 -2 -12 -5z"/>
<path d="M1215 1819 c-93 -16 -296 -47 -450 -69 -270 -39 -680 -104 -738 -116
-27 -6 -27 -6 -27 -85 0 -43 3 -79 6 -79 4 0 74 11 157 25 87 15 154 22 159
17 5 -5 8 -97 6 -205 -3 -171 -1 -196 12 -192 8 2 83 18 165 35 166 35 238 38
305 15 25 -8 34 -13 20 -11 -14 3 -47 7 -75 10 -45 5 -43 4 15 -9 85 -18 133
-18 222 1 40 8 96 19 123 24 28 5 92 18 144 29 126 28 133 28 129 -6 -2 -23
-10 -29 -43 -36 -122 -26 -839 -207 -1070 -270 l-270 -74 -1 -217 c-1 -119 2
-216 6 -216 8 0 631 170 715 196 28 8 133 33 235 55 102 22 235 53 296 69 127
34 134 35 134 16 0 -14 -60 -36 -235 -84 -112 -31 -565 -166 -872 -259 l-283
-86 0 -134 c0 -106 3 -133 14 -133 7 0 19 -7 26 -15 8 -10 30 -15 63 -15 l50
0 -6 50 c-3 28 -3 50 2 50 18 0 90 -63 94 -83 4 -19 4 -18 6 5 0 16 9 32 21
38 18 10 20 8 20 -25 0 -19 5 -35 10 -35 16 0 12 73 -6 98 -22 32 -12 38 33
21 37 -14 38 -17 41 -67 4 -65 22 -69 22 -4 0 53 18 102 38 102 8 0 12 -22 12
-75 0 -43 4 -75 10 -75 6 0 10 31 10 74 0 68 -2 76 -25 94 -14 11 -25 25 -25
31 0 14 5 14 40 -4 30 -15 30 -16 30 -105 0 -83 1 -90 20 -90 18 0 20 7 20 65
l0 65 35 0 35 0 2 -67 c0 -38 3 -53 5 -35 4 33 5 33 24 16 10 -9 19 -23 19
-31 0 -8 12 -13 35 -13 32 0 35 2 25 19 -13 26 -13 171 0 171 15 0 71 -29 93
-48 13 -11 17 -31 17 -79 0 -35 4 -63 10 -63 6 0 10 29 10 68 l0 69 159 46
c87 26 161 47 165 47 9 0 7 -93 -2 -107 -4 -7 -77 -37 -162 -67 -85 -30 -144
-55 -130 -55 14 0 115 31 225 69 l200 69 34 -35 c33 -35 35 -57 3 -38 -13 8
-41 2 -117 -25 -69 -25 -93 -37 -76 -39 13 -2 34 2 46 8 17 9 28 9 43 1 11 -6
54 -11 95 -11 l74 0 7 37 c7 46 6 1036 -3 1484 l-6 326 -170 -28z m68 -156 c4
-2 7 -100 7 -217 l0 -214 -27 -5 c-16 -3 -32 -3 -36 0 -5 3 -6 85 -2 182 8
196 3 258 -23 264 -9 2 3 2 28 -1 25 -2 48 -6 53 -9z m-109 -39 c14 -5 16 -33
16 -210 l0 -204 -25 -6 c-55 -14 -55 -12 -55 216 l0 210 24 0 c13 0 31 -3 40
-6z m-171 -208 c6 -16 -3 -19 -114 -36 -73 -12 -79 -11 -140 13 l-64 26 90 3
c215 9 223 8 228 -6z m45 -62 c2 -17 -3 -35 -10 -41 -17 -13 -227 -55 -239
-47 -5 3 -9 23 -9 44 0 44 -14 38 145 64 104 18 109 17 113 -20z m2 -89 c0
-20 -7 -26 -37 -34 -85 -23 -156 -29 -192 -16 -44 15 -52 35 -14 36 15 0 69 9
118 19 122 25 125 25 125 -5z m10 -64 c0 -15 -15 -21 -82 -35 -55 -11 -85 -13
-92 -6 -17 17 11 34 77 46 90 17 97 16 97 -5z m-242 -418 c2 -144 2 -151 -18
-156 -19 -5 -20 -1 -20 147 0 84 3 156 7 160 22 21 28 -11 31 -151z m383 120
c1 -21 3 -57 5 -80 3 -33 0 -43 -14 -47 -48 -15 -314 -57 -327 -52 -35 13 -6
24 138 50 215 38 205 36 184 47 -18 11 -23 54 -7 64 7 4 7 12 0 24 -5 10 -6
21 -3 25 15 14 23 4 24 -31z m-441 -128 c0 -133 -2 -157 -16 -162 -28 -10 -34
18 -34 164 0 139 0 142 23 146 12 2 23 5 25 6 1 0 2 -69 2 -154z m400 137 c0
-15 -20 -21 -143 -40 -78 -12 -148 -22 -155 -22 -16 0 -16 40 1 41 6 0 64 9
127 19 155 24 170 24 170 2z m-520 -166 c0 -145 -7 -183 -28 -161 -9 8 -16
281 -8 301 3 8 12 14 21 14 13 0 15 -22 15 -154z m45 -2 c0 -134 -2 -149 -17
-152 -17 -3 -18 9 -18 146 0 82 3 152 7 156 22 22 28 -10 28 -150z m-95 -18
c0 -128 -3 -155 -15 -160 -13 -5 -15 16 -15 154 0 136 2 160 15 160 13 0 15
-24 15 -154z m568 122 l-3 -32 -145 -27 c-79 -15 -148 -25 -152 -23 -5 3 -8
20 -8 38 l0 32 138 21 c187 28 174 29 170 -9z m-608 -142 c0 -122 -2 -145 -16
-150 -43 -16 -44 -13 -44 144 l0 150 30 0 30 0 0 -144z m-90 -31 c0 -138 -1
-145 -20 -145 -19 0 -20 7 -20 145 0 138 1 145 20 145 19 0 20 -7 20 -145z
m-67 -156 c-4 -4 -19 -9 -33 -11 l-25 -3 0 140 0 140 30 5 30 5 3 -134 c1 -74
-1 -138 -5 -142z m-75 117 c-3 -137 -4 -141 -25 -144 -22 -3 -22 -1 -25 145
l-3 149 28 -4 28 -4 -3 -142z m920 107 c3 -19 -7 -23 -85 -41 -156 -36 -270
-55 -286 -49 -10 4 -17 15 -17 26 0 15 9 22 38 27 213 41 329 61 337 59 6 -1
11 -11 13 -22z m-988 -128 l0 -135 -26 -10 c-54 -21 -54 -22 -54 135 l0 145
40 0 40 0 0 -135z m-115 -30 c0 -125 -2 -140 -17 -143 -17 -3 -18 9 -18 143 0
134 1 146 18 143 15 -3 17 -18 17 -143z m-55 -15 c0 -78 -4 -140 -9 -140 -5 0
-16 -3 -25 -6 -14 -5 -16 11 -16 140 l0 146 25 0 25 0 0 -140z m1115 -208 c22
-12 32 -21 23 -22 -15 0 -18 -14 -20 -107 -2 -74 -7 -108 -15 -111 -10 -3 -13
18 -13 82 l0 86 -40 20 c-37 19 -40 24 -40 60 l0 40 33 -13 c17 -8 50 -23 72
-35z m55 -127 c0 -75 -3 -95 -14 -95 -20 0 -26 23 -26 104 0 75 4 86 27 86 10
0 13 -22 13 -95z m-211 49 c21 -11 47 -15 72 -11 32 4 39 2 39 -12 0 -24 -306
-111 -345 -98 -21 7 -24 12 -14 23 6 8 18 14 27 14 21 0 173 42 168 47 -2 2
-39 -5 -82 -16 -68 -17 -81 -18 -103 -6 -14 8 -24 15 -21 15 3 1 48 14 100 30
115 34 119 34 159 14z m-456 -87 c15 -12 27 -26 27 -33 0 -13 -31 -24 -67 -24
-30 0 -31 33 -2 46 20 9 19 11 -15 29 -20 11 -36 23 -36 28 0 9 54 -18 93 -46z
m87 -72 c0 -71 -2 -83 -15 -79 -12 5 -15 24 -15 85 0 64 3 79 15 79 12 0 15
-16 15 -85z"/>
<path d="M115 1469 c-61 -10 -111 -18 -112 -18 -2 -1 -3 -10 -3 -22 0 -13 5
-19 13 -16 7 3 55 11 106 18 118 17 124 12 119 -104 -4 -99 -12 -107 -141
-131 -62 -11 -97 -23 -97 -31 0 -9 28 -7 116 11 63 13 120 26 125 30 7 4 9 -5
7 -21 -3 -25 -9 -29 -110 -55 -148 -38 -138 -31 -138 -91 l0 -51 29 5 c38 8
194 68 189 73 -3 2 -43 -10 -91 -28 -48 -17 -89 -29 -91 -27 -2 2 -6 16 -10
31 -6 27 -5 28 96 59 57 17 110 33 119 35 13 4 15 -1 11 -21 -3 -17 0 -25 9
-24 20 1 57 17 42 18 -10 1 -13 46 -13 191 l0 190 -32 -1 c-18 -1 -82 -10
-143 -20z"/>
<path d="M448 993 c7 -3 16 -2 19 1 4 3 -2 6 -13 5 -11 0 -14 -3 -6 -6z"/>
<path d="M408 983 c7 -3 16 -2 19 1 4 3 -2 6 -13 5 -11 0 -14 -3 -6 -6z"/>
<path d="M355 975 c-5 -2 -82 -20 -170 -41 -88 -20 -167 -41 -175 -46 -12 -7
-10 -8 5 -4 11 3 99 24 195 46 96 23 177 44 179 46 5 5 -19 4 -34 -1z"/>
<path d="M5088 153 c6 -2 18 -2 25 0 6 3 1 5 -13 5 -14 0 -19 -2 -12 -5z"/>
</g>
</svg>